<?xml version="1.0" standalone="no"?>
<!DOCTYPE svg PUBLIC "-//W3C//DTD SVG 20010904//EN"
 "http://www.w3.org/TR/2001/REC-SVG-20010904/DTD/svg10.dtd">
<svg version="1.0" xmlns="http://www.w3.org/2000/svg"
 width="563.000000pt" height="344.000000pt" viewBox="0 0 563.000000 344.000000"
 preserveAspectRatio="xMidYMid meet">

<g transform="translate(0.000000,344.000000) scale(0.100000,-0.100000)"
fill="#000000" stroke="none">
<path d="M0 1720 l0 -1720 2815 0 2815 0 0 1720 0 1720 -2815 0 -2815 0 0
-1720z m1388 1658 c7 -7 12 -29 12 -49 0 -20 7 -42 15 -49 11 -9 12 -17 4 -31
-11 -21 -17 -23 -39 -9 -12 7 -12 13 -1 33 7 13 11 41 9 63 l-3 39 -315 5
-315 5 311 3 c230 1 313 -1 322 -10z m-1178 -38 c0 -11 -4 -20 -10 -20 -5 0
-10 9 -10 20 0 11 5 20 10 20 6 0 10 -9 10 -20z m180 0 c0 -11 -4 -20 -10 -20
-5 0 -10 9 -10 20 0 11 5 20 10 20 6 0 10 -9 10 -20z m190 0 c0 -11 -4 -20 -9
-20 -5 0 -11 9 -14 20 -3 13 0 20 9 20 8 0 14 -9 14 -20z m180 0 c0 -11 -4
-20 -10 -20 -5 0 -10 9 -10 20 0 11 5 20 10 20 6 0 10 -9 10 -20z m190 0 c0
-11 -7 -20 -15 -20 -15 0 -21 21 -8 33 12 13 23 7 23 -13z m180 0 c0 -11 -4
-20 -10 -20 -5 0 -10 9 -10 20 0 11 5 20 10 20 6 0 10 -9 10 -20z m190 0 c0
-11 -7 -20 -15 -20 -8 0 -15 9 -15 20 0 11 7 20 15 20 8 0 15 -9 15 -20z
m1130 -65 c0 -33 -4 -45 -15 -45 -11 0 -15 12 -15 45 0 33 4 45 15 45 11 0 15
-12 15 -45z m50 -5 c0 -40 -3 -48 -15 -44 -10 4 -15 20 -15 50 0 32 4 44 15
44 11 0 15 -12 15 -50z m49 13 l-2 -38 -7 35 -7 35 -2 -37 c0 -21 4 -38 12
-41 7 -3 5 -6 -5 -6 -15 -1 -18 8 -18 44 0 33 4 45 15 45 11 0 15 -10 14 -37z
m51 -8 c0 -33 -4 -45 -15 -45 -11 0 -15 12 -15 45 0 33 4 45 15 45 11 0 15
-12 15 -45z m50 0 c0 -33 -4 -45 -15 -45 -11 0 -15 12 -15 45 0 33 4 45 15 45
11 0 15 -12 15 -45z m50 35 c0 -5 -5 -10 -11 -10 -16 0 -6 -54 11 -62 11 -6
10 -7 -5 -5 -21 2 -32 43 -21 73 6 16 26 19 26 4z m55 -36 c0 -29 -4 -40 -17
-42 -15 -3 -18 4 -18 36 0 21 3 42 7 46 15 15 28 -3 28 -40z m40 36 c-3 -5
-11 -10 -16 -10 -6 0 -7 5 -4 10 3 6 11 10 16 10 6 0 7 -4 4 -10z m63 -38 c2
-33 0 -42 -12 -42 -12 0 -16 11 -16 46 0 59 24 55 28 -4z m50 0 c3 -35 0 -42
-16 -42 -15 0 -18 7 -16 43 2 51 1 50 17 45 6 -3 13 -23 15 -46z m46 32 c3 -9
6 -29 6 -45 0 -21 -5 -29 -17 -28 -11 0 -13 3 -5 6 14 6 17 63 2 63 -5 0 -10
5 -10 10 0 16 17 12 24 -6z m54 -32 c2 -33 0 -42 -12 -42 -12 0 -16 11 -16 46
0 59 24 55 28 -4z m50 0 c2 -33 0 -42 -12 -42 -12 0 -16 11 -16 46 0 59 24 55
28 -4z m52 3 c0 -33 -4 -45 -15 -45 -11 0 -15 12 -15 45 0 33 4 45 15 45 11 0
15 -12 15 -45z m50 0 c0 -33 -4 -45 -15 -45 -11 0 -15 12 -15 45 0 33 4 45 15
45 11 0 15 -12 15 -45z m48 -3 c2 -33 0 -42 -12 -42 -12 0 -16 11 -16 46 0 59
24 55 28 -4z m-1896 6 c-2 -18 -9 -39 -14 -45 -8 -10 -101 -12 -417 -11 l-406
3 399 2 c274 2 403 7 413 14 16 14 17 56 1 62 -7 3 -4 6 8 6 18 1 20 -4 16
-31z m2807 -16 c-24 -26 -46 -47 -48 -45 -5 4 80 93 87 93 3 0 -15 -22 -39
-48z m-3179 26 c0 -5 -85 -8 -190 -8 -104 0 -190 3 -190 8 0 4 86 7 190 7 105
0 190 -3 190 -7z m1851 -48 c5 0 9 -4 9 -10 0 -5 -7 -7 -15 -4 -9 4 -14 18
-14 38 2 30 2 30 6 4 2 -16 9 -28 14 -28z m146 18 c-3 -7 -5 -2 -5 12 0 14 2
19 5 13 2 -7 2 -19 0 -25z m843 -38 c0 -5 -11 -10 -25 -10 -52 0 -150 -71
-167 -122 -3 -7 -8 -10 -12 -6 -12 10 22 65 57 92 59 45 147 73 147 46z m68 0
c10 0 13 -3 6 -10 -11 -11 -54 -2 -54 12 0 6 7 7 16 4 9 -3 23 -6 32 -6z m109
-45 c29 -30 53 -60 53 -67 0 -7 -7 -1 -17 12 -23 36 -65 80 -85 91 -13 7 -20
4 -29 -12 -9 -18 -6 -26 24 -58 40 -41 57 -72 57 -98 -1 -10 -7 0 -15 22 -8
22 -31 54 -51 72 -35 31 -36 34 -24 63 7 16 17 30 23 30 6 0 35 -25 64 -55z
m-1587 19 c0 -8 -6 -14 -13 -14 -7 0 -70 -58 -140 -128 l-128 -128 3 -377 c2
-247 0 -377 -7 -377 -7 0 -9 132 -7 382 l2 383 125 125 c69 69 125 130 125
137 0 12 21 23 33 16 4 -2 7 -11 7 -19z m930 3 c0 -7 56 -68 125 -137 l125
-125 0 -364 c0 -225 4 -369 10 -376 7 -9 6 -16 -4 -24 -10 -9 -16 -8 -25 3 -8
10 -9 16 -1 21 7 4 10 126 10 368 l0 362 -127 127 c-70 71 -133 128 -140 128
-13 0 -18 22 -7 33 9 9 34 -3 34 -16z m-1604 -137 c1 -80 -3 -153 -7 -162 -6
-10 -5 -18 2 -20 12 -4 12 -3 3 -178 l-6 -135 41 -39 40 -40 113 3 c62 1 122
3 133 4 12 1 20 -4 20 -13 0 -8 -6 -15 -12 -14 -7 1 -67 2 -133 3 l-120 1 -45
46 -45 47 -1 96 c-1 53 -1 113 0 134 3 46 -14 49 -23 5 -7 -36 -35 -61 -79
-72 -35 -8 -101 20 -93 41 3 8 2 12 -3 9 -5 -3 -14 8 -20 26 -13 37 -13 41 -3
35 4 -3 7 8 7 24 l0 29 -235 2 -235 2 241 6 c219 4 244 7 263 24 12 11 41 21
72 24 41 4 56 1 79 -17 16 -11 31 -21 33 -21 2 0 5 65 6 145 l2 145 -438 3
-438 2 440 0 440 0 1 -145z m3183 124 c2 -2 -140 -4 -317 -4 l-322 0 0 -235 0
-235 497 0 c273 0 494 -2 492 -5 -4 -3 -932 -9 -986 -6 -10 1 -13 58 -13 249
l0 248 323 -4 c177 -2 324 -6 326 -8z m89 -1 c-10 -2 -26 -2 -35 0 -10 3 -2 5
17 5 19 0 27 -2 18 -5z m-3133 -13 c3 -6 -1 -7 -9 -4 -18 7 -21 14 -7 14 6 0
13 -4 16 -10z m185 -10 c11 -11 20 -26 20 -32 -1 -8 -8 -4 -18 8 -9 11 -26 26
-37 32 -18 10 -18 11 -2 12 9 0 26 -9 37 -20z m-150 -37 c0 -7 -4 -13 -9 -13
-5 0 -8 12 -8 26 0 18 2 22 8 13 5 -8 9 -20 9 -26z m43 7 c-3 -12 -8 -19 -11
-16 -5 6 5 36 12 36 2 0 2 -9 -1 -20z m3122 -35 c0 -19 7 -30 21 -35 16 -6 23
-20 27 -52 2 -23 8 -52 13 -62 5 -13 4 -17 -4 -13 -6 4 -13 21 -17 37 -12 52
-23 42 -19 -17 12 -184 12 -197 1 -177 -6 10 -12 30 -13 44 -13 126 -31 140
-40 29 -3 -37 -12 -70 -20 -79 -14 -13 -15 -12 -9 10 3 14 7 69 8 122 2 94 -5
118 -18 58 -4 -17 -10 -30 -15 -30 -5 0 -5 12 0 28 5 15 11 43 14 63 5 26 13
38 27 42 11 3 19 11 18 19 -4 30 2 49 14 45 6 -2 12 -16 12 -32z m252 -287
c-1 -62 -3 -14 -3 107 0 121 2 172 3 113 2 -59 2 -158 0 -220z m-4289 302
c-14 -4 -32 -11 -40 -15 -7 -3 -4 1 6 9 11 9 29 16 40 15 17 -1 16 -2 -6 -9z
m1566 -80 c-1 -44 2 -77 7 -74 5 3 9 0 9 -7 0 -10 3 -10 12 -1 16 16 45 15 51
0 3 -8 6 -6 6 5 1 9 6 17 12 17 6 0 9 6 6 14 -3 8 1 17 9 20 8 3 14 11 13 18
0 10 -2 10 -6 1 -6 -16 -43 -17 -43 -3 0 6 8 10 18 8 12 -2 16 3 14 17 -2 16
1 14 15 -7 20 -31 35 -37 27 -10 -5 16 -5 16 6 0 6 -10 17 -15 27 -11 11 4 14
3 9 -6 -5 -7 -14 -10 -22 -7 -8 3 -14 1 -14 -4 0 -11 11 -13 34 -4 22 8 20 19
-9 48 -14 14 -25 21 -25 16 0 -5 -7 -7 -15 -4 -8 4 -15 18 -15 34 0 22 4 27
18 25 9 -2 22 -4 27 -5 6 -1 0 -5 -12 -10 -13 -5 -23 -15 -22 -22 0 -10 2 -10
6 0 7 18 33 15 34 -5 0 -16 1 -16 8 1 7 19 8 19 15 1 4 -11 2 -22 -6 -27 -11
-6 -11 -8 0 -8 7 0 15 7 18 15 4 8 11 12 18 8 7 -4 6 -1 -2 9 -16 20 -6 47 16
44 11 -2 20 -17 25 -44 4 -23 13 -42 18 -42 6 0 8 -9 4 -20 -8 -24 4 -45 60
-115 38 -46 46 -64 51 -112 4 -32 14 -66 22 -76 23 -26 16 -93 -14 -132 -13
-18 -21 -35 -16 -40 4 -4 -1 -5 -10 -2 -23 8 -25 -25 -3 -43 21 -18 21 -313 0
-350 -8 -14 -14 -19 -15 -11 0 8 -2 12 -5 10 -2 -3 -2 -15 2 -27 5 -19 8 -21
22 -10 14 12 15 11 2 -5 -8 -9 -16 -15 -19 -12 -4 3 -27 -38 -53 -92 l-47 -98
19 -37 c11 -21 16 -38 12 -38 -5 0 -8 -18 -8 -40 0 -29 4 -39 14 -37 10 1 19
-18 29 -68 16 -80 17 -90 7 -125 -5 -18 -4 -21 3 -11 8 11 12 5 17 -25 3 -21
8 -52 10 -67 3 -20 1 -26 -8 -21 -9 5 -9 4 1 -7 14 -15 16 -33 3 -24 -6 3 -9
-3 -8 -14 1 -14 5 -17 13 -10 8 7 13 -9 18 -58 5 -49 4 -68 -6 -74 -19 -12
-30 -11 -22 2 3 6 0 15 -7 20 -10 6 -11 9 -1 9 14 0 16 38 2 60 -5 8 -12 11
-17 7 -4 -5 -2 -12 6 -16 9 -6 7 -10 -8 -14 -28 -7 -31 0 -15 31 7 14 11 29 7
32 -3 3 -8 -1 -10 -7 -9 -25 -19 -12 -15 18 3 21 1 30 -6 25 -6 -3 -13 -2 -17
4 -3 5 -11 10 -17 10 -5 0 0 -9 13 -20 16 -14 18 -18 7 -14 -17 6 -17 3 -4
-34 8 -22 26 -59 41 -82 14 -23 30 -51 35 -63 5 -12 9 -16 9 -9 1 6 5 12 9 12
5 0 6 -14 4 -31 -4 -30 -5 -30 -42 37 -21 37 -45 69 -54 70 -8 1 -14 -3 -13
-9 3 -17 21 -35 30 -30 4 2 7 -1 7 -6 0 -6 -4 -11 -10 -11 -13 0 26 -101 78
-202 2 -5 -1 -8 -7 -8 -6 0 -10 3 -9 8 2 9 -54 122 -62 122 -3 0 -5 -27 -5
-59 0 -33 3 -57 8 -54 4 2 7 -1 7 -6 0 -6 -4 -11 -10 -11 -5 0 -10 -9 -10 -21
0 -14 5 -19 15 -16 8 4 17 2 20 -3 4 -6 11 -10 17 -10 6 0 4 8 -5 18 -14 15
-15 19 -2 19 8 0 12 -4 8 -10 -3 -5 5 -7 18 -5 19 2 25 11 30 43 l6 40 2 -42
c0 -23 -3 -44 -9 -48 -5 -3 -7 -11 -4 -18 3 -9 -9 -12 -42 -12 -37 0 -49 -4
-62 -23 -14 -21 -13 -22 3 -16 14 6 16 4 10 -7 -8 -12 -6 -12 8 -1 9 8 22 10
29 6 9 -5 8 -2 -2 10 -13 16 -12 18 10 14 14 -2 24 -9 22 -17 -1 -7 9 -28 23
-46 21 -28 23 -38 15 -60 -5 -14 -6 -24 -2 -21 10 6 9 -25 -1 -42 -6 -8 -3
-10 10 -5 15 6 16 4 5 -9 -10 -13 -10 -17 0 -21 9 -4 9 -6 -2 -6 -10 -1 -28
30 -52 87 -22 54 -42 88 -53 90 -13 3 -15 -1 -10 -18 5 -15 2 -26 -6 -31 -10
-6 -7 -9 10 -9 24 0 24 0 5 -15 -10 -8 -22 -15 -25 -15 -11 0 -18 55 -7 61 5
3 0 9 -11 12 -14 3 -21 0 -21 -9 0 -8 -4 -14 -9 -14 -6 0 -7 -10 -4 -23 3 -12
6 -48 7 -79 1 -31 5 -60 9 -64 8 -8 -1 -24 -14 -24 -5 0 -9 7 -7 16 2 10 -3
19 -11 22 -8 3 -11 0 -7 -7 4 -6 3 -11 -2 -11 -17 0 -20 25 -6 51 11 20 13 21
14 5 0 -11 2 -17 5 -14 4 3 3 17 -1 32 -5 21 -11 25 -35 22 -16 -2 -33 2 -36
8 -11 17 -12 35 -2 42 5 3 9 17 9 32 0 38 25 70 55 70 13 0 22 -5 19 -10 -7
-11 14 -28 35 -28 11 0 11 4 -3 19 -14 16 -15 20 -2 30 22 19 31 107 13 126
-23 22 -28 18 -16 -12 8 -22 7 -30 -5 -39 -9 -6 -17 -17 -17 -25 -1 -16 -19
54 -23 91 -4 38 -16 70 -27 70 -11 0 -11 2 0 -38 6 -20 6 -32 0 -32 -5 0 -9 9
-9 19 0 11 -4 22 -9 26 -6 3 -9 13 -9 23 0 18 -9 81 -18 122 -3 14 -8 36 -11
50 -2 14 -13 52 -24 84 -21 66 -23 78 -9 56 7 -11 10 -5 11 25 1 35 2 37 9 15
8 -24 8 -24 9 -3 1 14 -9 29 -23 39 -17 11 -26 27 -29 52 -3 26 -4 21 -4 -15
0 -42 4 -53 16 -53 15 -1 15 -1 0 -10 -12 -7 -16 -25 -15 -80 1 -40 -3 -70 -9
-70 -5 0 -5 -4 2 -8 17 -10 43 -76 49 -120 2 -20 10 -48 18 -63 7 -14 12 -43
11 -63 -1 -20 2 -39 7 -42 4 -3 8 -13 8 -24 0 -10 6 -20 14 -23 11 -4 16 3 19
26 4 30 4 30 5 -6 1 -25 -2 -37 -10 -36 -31 4 -38 -2 -32 -25 3 -13 2 -26 -3
-29 -5 -4 -9 12 -9 33 1 22 -2 40 -6 40 -5 0 -8 5 -8 11 0 5 4 8 8 5 5 -3 -2
17 -16 44 -13 26 -24 68 -25 93 -1 25 -5 43 -9 40 -5 -2 -8 2 -8 11 0 8 -4 16
-8 18 -4 2 -29 75 -56 163 -26 88 -54 180 -62 205 -22 72 -26 129 -12 215 13
79 13 81 -15 165 -29 83 -29 89 -23 224 6 133 5 142 -17 180 -13 23 -22 52
-21 66 5 62 5 190 -1 245 -6 50 -3 72 19 134 14 41 32 81 39 90 17 20 55 115
63 158 4 18 11 30 18 27 7 -3 11 -32 10 -84z m46 80 c0 -5 -2 -10 -4 -10 -3 0
-8 5 -11 10 -3 6 -1 10 4 10 6 0 11 -4 11 -10z m1795 -62 c38 -17 75 3 75 42
0 16 5 30 11 30 16 0 2 -51 -21 -75 -19 -19 -19 -19 2 -42 30 -32 28 -80 -4
-108 l-24 -21 23 -17 c17 -14 23 -27 21 -55 -1 -33 -2 -34 -5 -7 -4 29 -6 30
-51 28 l-47 -1 44 6 c43 7 43 7 23 25 -19 18 -22 18 -46 2 -20 -13 -26 -26
-26 -52 0 -20 -4 -32 -10 -28 -17 11 -11 42 15 73 l24 29 -24 23 c-34 32 -36
69 -3 101 l26 27 -24 21 c-15 13 -24 31 -23 48 1 27 1 27 10 -5 6 -19 20 -37
34 -44z m48 65 c-13 -2 -33 -2 -45 0 -13 2 -3 4 22 4 25 0 35 -2 23 -4z
m-2436 -61 c-21 -20 -30 -23 -54 -16 l-28 8 33 4 c25 2 38 11 50 33 13 21 18
25 20 13 2 -9 -7 -28 -21 -42z m624 -56 c16 -17 10 -24 -16 -21 -14 1 -28 -2
-31 -7 -9 -13 -24 12 -23 37 0 17 2 16 11 -5 l11 -25 7 25 c5 15 8 18 9 8 1
-9 4 -19 9 -21 4 -3 7 20 6 51 -1 46 0 48 3 12 2 -25 8 -49 14 -54z m19 94 c0
-5 -4 -10 -10 -10 -5 0 -10 5 -10 10 0 6 5 10 10 10 6 0 10 -4 10 -10z m1247
-21 c7 -13 13 -41 13 -63 0 -37 -1 -38 -27 -31 -16 4 -28 7 -29 8 -20 53 -22
83 -7 99 20 23 34 19 50 -13z m-1300 -26 c-3 -10 -5 -2 -5 17 0 19 2 27 5 18
2 -10 2 -26 0 -35z m1673 -98 c0 -83 -4 -135 -10 -135 -6 0 -10 52 -10 135 0
83 4 135 10 135 6 0 10 -52 10 -135z m185 126 c-6 -6 -25 -6 -45 -1 l-35 8 45
1 c27 1 40 -3 35 -8z m-650 -32 c-11 -17 -35 -9 -35 11 0 18 3 19 20 10 11 -6
18 -15 15 -21z m-1985 1 c-8 -5 -17 -7 -19 -4 -3 3 1 9 9 14 8 5 17 7 19 4 3
-3 -1 -9 -9 -14z m-760 2 c0 -5 -7 -17 -15 -28 -14 -18 -14 -17 -4 9 12 27 19
34 19 19z m245 -2 c3 -5 1 -10 -4 -10 -6 0 -11 5 -11 10 0 6 2 10 4 10 3 0 8
-4 11 -10z m2712 -52 c-2 -13 -4 -3 -4 22 0 25 2 35 4 23 2 -13 2 -33 0 -45z
m-341 42 c8 0 14 -10 14 -23 0 -12 8 -33 17 -46 l16 -24 8 21 c10 27 39 29 39
2 0 -14 -5 -18 -17 -14 -12 4 -9 -2 8 -18 24 -20 42 -55 44 -82 1 -19 23 -16
58 8 20 14 39 21 41 17 7 -10 -112 -67 -121 -57 -4 4 -2 10 4 14 18 11 -19 67
-55 86 -25 13 -32 13 -48 1 -13 -9 -23 -10 -31 -3 -22 18 -63 -35 -63 -81 0
-49 43 -92 85 -84 30 6 29 8 -17 32 -54 30 -49 90 10 112 49 19 115 -47 92
-91 -14 -26 -13 -43 3 -37 6 2 11 11 9 21 -2 11 4 16 20 16 38 1 101 35 136
74 17 20 32 41 32 47 0 6 4 8 9 4 6 -3 2 -20 -10 -39 -11 -18 -17 -40 -13 -49
4 -11 -9 -24 -48 -46 -29 -17 -59 -31 -67 -31 -8 0 10 12 39 28 30 15 56 33
58 39 2 7 -22 -1 -53 -17 -31 -17 -63 -30 -71 -30 -17 0 -18 -17 -1 -23 6 -3
-4 -6 -24 -6 -20 -1 -50 -8 -65 -16 -51 -26 -103 -14 -141 35 -15 18 -17 120
-3 120 6 0 10 7 10 15 0 9 12 20 26 25 23 9 25 14 20 44 -8 41 2 69 21 62 8
-3 21 -6 29 -6z m67 4 c9 -10 -4 -34 -19 -34 -8 0 -14 6 -14 13 0 22 19 35 33
21z m-183 -19 c0 -8 -4 -15 -10 -15 -5 0 -10 7 -10 15 0 8 5 15 10 15 6 0 10
-7 10 -15z m-2140 1 c0 -3 -4 -8 -10 -11 -5 -3 -10 -1 -10 4 0 6 5 11 10 11 6
0 10 -2 10 -4z m2537 -33 c-3 -10 -5 -4 -5 12 0 17 2 24 5 18 2 -7 2 -21 0
-30z m-127 15 c0 -7 -4 -19 -9 -26 -6 -10 -10 -10 -20 2 -7 8 -10 20 -6 26 9
14 35 13 35 -2z m163 -8 c3 -12 0 -20 -8 -20 -8 0 -11 8 -8 20 3 11 7 20 8 20
1 0 5 -9 8 -20z m-2184 -50 c4 0 17 -9 29 -20 24 -23 30 -78 10 -98 -21 -21
-29 -13 -13 12 27 40 15 68 -40 100 -17 10 -22 15 -12 12 10 -3 22 -6 26 -6z
m195 -6 c27 -26 37 -52 30 -79 -7 -29 -48 -65 -74 -65 -22 0 -70 48 -69 69 0
11 3 9 9 -6 11 -28 45 -46 70 -38 11 3 29 19 40 35 24 33 17 57 -22 84 -12 9
-17 16 -11 16 6 0 19 -7 27 -16z m-103 -41 c-12 -20 -14 -14 -5 12 4 9 9 14
11 11 3 -2 0 -13 -6 -23z m-1291 7 c0 -5 -10 -10 -22 -9 -22 0 -22 1 -3 9 11
5 21 9 23 9 1 1 2 -3 2 -9z m-90 -54 c0 -2 -9 -6 -20 -9 -11 -3 -18 -1 -14 4
5 9 34 13 34 5z m528 -3 c-15 -2 -42 -2 -60 0 -18 2 -6 4 27 4 33 0 48 -2 33
-4z m120 0 c-15 -2 -42 -2 -60 0 -18 2 -6 4 27 4 33 0 48 -2 33 -4z m-440 -66
l-3 -42 -145 3 c-110 3 -149 7 -162 19 -11 9 -18 11 -23 4 -3 -6 -1 -11 4 -11
6 0 11 -4 11 -10 0 -18 -28 -10 -33 10 -3 10 -2 19 2 18 12 -2 41 14 37 21 -3
4 5 8 17 8 12 1 23 6 24 10 2 4 64 9 139 10 l135 1 -3 -41z m379 11 c-3 -7 -5
-2 -5 12 0 14 2 19 5 13 2 -7 2 -19 0 -25z m33 -8 c0 -22 -4 -40 -8 -40 -4 0
-8 18 -9 40 -1 22 2 40 8 40 5 0 9 -18 9 -40z m17 -97 c-2 -27 -3 -5 -3 47 0
52 1 74 3 48 2 -27 2 -69 0 -95z m30 115 c-3 -8 -6 -5 -6 6 -1 11 2 17 5 13 3
-3 4 -12 1 -19z m2813 -53 l-65 -64 -165 -2 c-90 -1 -165 2 -167 7 -2 5 70 8
164 6 l168 -3 60 60 c33 34 62 61 65 61 2 0 -24 -29 -60 -65z m443 38 c-13 -2
-33 -2 -45 0 -13 2 -3 4 22 4 25 0 35 -2 23 -4z m-3336 -120 c-2 -21 -4 -4 -4
37 0 41 2 58 4 38 2 -21 2 -55 0 -75z m156 100 c-7 -2 -19 -2 -25 0 -7 3 -2 5
12 5 14 0 19 -2 13 -5z m60 0 c-7 -2 -21 -2 -30 0 -10 3 -4 5 12 5 17 0 24 -2
18 -5z m77 -123 l0 -130 -112 2 -113 2 108 3 107 4 0 119 0 119 -27 4 c-26 4
-26 4 5 6 l32 1 0 -130z m-213 63 c-3 -10 -5 -2 -5 17 0 19 2 27 5 18 2 -10 2
-26 0 -35z m137 15 c20 -28 20 -33 1 -52 -13 -13 -12 -18 15 -44 17 -17 30
-40 30 -51 0 -19 -6 -21 -75 -21 -73 0 -75 1 -75 25 0 26 31 65 52 65 6 0 4 7
-5 18 -22 24 -22 58 1 71 26 16 39 13 56 -11z m515 -24 c12 -15 21 -32 20 -38
0 -6 -5 -1 -11 11 -6 13 -19 25 -29 28 -11 4 -19 11 -19 16 0 17 18 9 39 -17z
m164 6 c35 -28 41 -52 23 -94 -15 -35 -50 -54 -78 -43 -7 3 -1 6 15 6 49 2 66
88 22 117 -25 16 -33 34 -16 34 4 0 20 -9 34 -20z m-1062 -44 c-16 -19 -41
-10 -41 14 0 24 21 31 39 14 11 -10 12 -16 2 -28z m199 -21 c0 -36 -4 -65 -9
-65 -6 0 -9 29 -8 65 1 36 5 65 9 65 4 0 8 -29 8 -65z m593 40 c-3 -9 -8 -14
-10 -11 -3 3 -2 9 2 15 9 16 15 13 8 -4z m-1010 -12 c-13 -2 -33 -2 -45 0 -13
2 -3 4 22 4 25 0 35 -2 23 -4z m464 -95 c-2 -18 -4 -4 -4 32 0 36 2 50 4 33 2
-18 2 -48 0 -65z m2816 14 l67 -66 0 -71 c0 -74 9 -94 44 -96 18 -1 19 -2 3
-6 -38 -10 -57 24 -57 101 l0 72 -64 63 -63 63 -159 -2 c-183 -2 -177 -2 -171
8 3 4 79 6 169 4 l163 -3 68 -67z m311 64 c49 -21 76 -60 76 -114 0 -75 -51
-132 -118 -132 -57 0 -132 73 -132 128 0 27 22 73 44 91 12 10 76 38 94 41 1
0 17 -6 36 -14z m-3574 -12 c0 -14 -3 -14 -15 -4 -8 7 -15 14 -15 16 0 2 7 4
15 4 8 0 15 -7 15 -16z m3840 6 c0 -5 8 -7 18 -3 9 3 14 3 11 -1 -13 -14 -77
-16 -82 -2 -4 9 4 13 24 14 16 0 29 -3 29 -8z m270 -10 c0 -5 -11 -11 -25 -11
-35 -2 -37 -3 -67 -22 -14 -10 -29 -29 -32 -43 -4 -13 -10 -24 -15 -24 -13 0
-1 40 21 72 10 15 25 25 32 22 8 -3 17 -1 21 5 8 14 65 14 65 1z m240 0 c0 -6
-11 -15 -24 -20 -13 -5 -27 -14 -31 -19 -3 -6 -13 -11 -21 -11 -21 0 -8 18 30
41 35 21 46 24 46 9z m60 -9 c0 -14 -12 -20 -26 -14 -22 8 -17 32 6 26 11 -3
20 -9 20 -12z m302 -12 c23 -21 26 -27 11 -20 -12 6 -23 16 -25 22 -2 7 -24
15 -49 19 l-44 7 37 2 c29 1 45 -6 70 -30z m-4375 -1 c-3 -8 -6 -5 -6 6 -1 11
2 17 5 13 3 -3 4 -12 1 -19z m3393 -28 c-35 -37 -39 -30 -9 19 13 22 24 30 30
24 7 -7 -1 -21 -21 -43z m-3732 4 c-4 -3 -12 5 -18 18 -12 22 -12 22 6 6 10
-10 15 -20 12 -24z m996 20 c3 -8 2 -12 -4 -9 -6 3 -10 10 -10 16 0 14 7 11
14 -7z m120 -7 c-8 -22 -81 -44 -95 -30 -8 8 -1 11 25 10 26 -1 41 5 53 20 20
24 27 24 17 0z m-747 -39 c-2 -13 -4 -5 -4 17 -1 22 1 32 4 23 2 -10 2 -28 0
-40z m50 0 c-2 -13 -4 -5 -4 17 -1 22 1 32 4 23 2 -10 2 -28 0 -40z m3501 27
c15 -32 15 -48 2 -40 -6 4 -10 -5 -10 -21 0 -15 -2 -25 -4 -23 -2 2 -4 6 -4 9
-1 3 -6 18 -12 34 -10 29 -6 66 9 66 4 0 13 -11 19 -25z m-2278 11 c0 -3 -4
-8 -10 -11 -5 -3 -10 -1 -10 4 0 6 5 11 10 11 6 0 10 -2 10 -4z m-735 -234
c-6 -7 -146 -4 -153 2 -3 3 28 6 69 6 l74 0 -110 113 -110 112 117 -115 c65
-62 115 -116 113 -118z m3165 220 c0 -4 -5 -13 -11 -19 -7 -7 -4 -9 13 -6 31
6 56 -22 41 -45 -15 -25 -45 -21 -61 8 -12 24 -12 23 -6 -12 7 -42 3 -46 -20
-22 -23 22 -20 60 6 84 23 21 38 26 38 12z m467 -27 c-8 -29 -7 -42 6 -70 9
-19 13 -35 8 -35 -24 0 -39 86 -21 121 16 29 19 23 7 -16z m-4397 9 c0 -17
-22 -14 -28 4 -2 7 3 12 12 12 9 0 16 -7 16 -16z m3715 -4 c41 -46 -29 -116
-75 -75 -24 22 -26 58 -4 79 21 22 57 20 79 -4z m-3518 -12 c-3 -8 -6 -5 -6 6
-1 11 2 17 5 13 3 -3 4 -12 1 -19z m63 2 c0 -5 -5 -10 -11 -10 -5 0 -7 5 -4
10 3 6 8 10 11 10 2 0 4 -4 4 -10z m4248 -2 c-3 -7 -15 -15 -28 -16 -21 -3
-22 -2 -11 12 16 19 44 21 39 4z m-4650 -23 c-2 -20 -8 -25 -30 -25 l-27 0 22
24 c29 31 37 32 35 1z m3738 -3 c1 -9 5 -28 9 -42 6 -24 6 -24 -9 -6 -9 11
-16 33 -16 50 0 30 12 29 16 -2z m528 19 c3 -5 -1 -11 -9 -15 -9 -3 -15 0 -15
9 0 16 16 20 24 6z m-3303 -47 l37 -36 -40 -40 -40 -40 -34 33 c-18 19 -34 38
-34 44 0 9 60 75 69 75 3 0 22 -16 42 -36z m3239 4 c-16 -52 -44 -74 -97 -75
-27 -1 -37 1 -23 4 36 7 89 50 96 78 3 14 12 25 19 25 10 0 11 -8 5 -32z m260
22 c0 -5 -4 -10 -10 -10 -5 0 -10 5 -10 10 0 6 5 10 10 10 6 0 10 -4 10 -10z
m197 -17 c-8 -9 -20 -12 -27 -8 -8 5 -6 11 7 20 23 17 39 7 20 -12z m-4230 11
c-3 -3 -12 -4 -19 -1 -8 3 -5 6 6 6 11 1 17 -2 13 -5z m4311 -46 c-24 -35 -63
-60 -89 -56 -20 3 -16 6 21 18 28 9 49 23 55 38 5 12 14 22 19 22 4 0 2 -10
-6 -22z m-322 -25 c-28 -23 -66 -31 -66 -13 0 6 6 10 14 10 8 0 24 9 37 19 34
27 48 13 15 -16z m-331 9 c-3 -3 -11 0 -18 7 -9 10 -8 11 6 5 10 -3 15 -9 12
-12z m-3960 -71 c-7 -6 -75 60 -75 73 0 6 18 -7 40 -29 22 -21 37 -41 35 -44z
m60 0 c-7 -6 -75 60 -75 73 0 6 18 -7 40 -29 22 -21 37 -41 35 -44z m30 39
c21 -22 35 -40 29 -40 -5 0 -28 18 -49 40 -21 22 -35 40 -29 40 5 0 28 -18 49
-40z m60 0 c21 -22 35 -40 29 -40 -5 0 -28 18 -49 40 -21 22 -35 40 -29 40 5
0 28 -18 49 -40z m90 -39 c-7 -6 -75 60 -75 73 0 6 18 -7 40 -29 22 -21 37
-41 35 -44z m60 0 c-7 -6 -75 60 -75 73 0 6 18 -7 40 -29 22 -21 37 -41 35
-44z m59 0 c-6 -6 -74 63 -74 75 0 5 18 -9 40 -31 22 -21 37 -41 34 -44z m31
39 c21 -22 35 -40 29 -40 -5 0 -28 18 -49 40 -21 22 -35 40 -29 40 5 0 28 -18
49 -40z m90 -39 c-7 -6 -75 60 -75 73 0 6 18 -7 40 -29 22 -21 37 -41 35 -44z
m30 37 c22 -23 31 -36 20 -28 -35 26 -75 70 -62 70 2 0 21 -19 42 -42z m91
-36 c-7 -6 -76 60 -76 72 0 5 18 -7 40 -29 22 -21 38 -41 36 -43z m59 -1 c-7
-6 -75 60 -75 73 0 6 18 -7 40 -29 22 -21 37 -41 35 -44z m30 39 c21 -22 37
-40 34 -40 -3 0 -23 18 -44 40 -21 22 -37 40 -34 40 3 0 23 -18 44 -40z m2919
22 c14 -11 39 -17 65 -17 22 0 41 -2 41 -6 0 -14 -50 -31 -74 -25 -28 7 -66
39 -66 56 0 14 9 12 34 -8z m-3690 -31 c33 -36 13 -31 -24 6 -20 20 -26 31
-15 25 11 -6 29 -20 39 -31z m1244 27 c-3 -9 -41 -11 -139 -9 l-134 2 -33 -34
-34 -35 2 -186 c0 -112 -3 -186 -9 -186 -6 0 -10 74 -11 183 l-1 182 43 42 43
42 120 4 c66 1 128 4 138 5 11 1 17 -3 15 -10z m3040 -6 c2 -7 -2 -10 -12 -6
-9 3 -16 11 -16 16 0 13 23 5 28 -10z m-4420 -65 l43 -44 -4 -99 -3 -99 -2
101 -2 101 -45 42 c-24 22 -41 41 -37 41 4 0 27 -19 50 -43z m922 -74 c0 -11
-5 -24 -11 -30 -13 -13 -4 -33 16 -33 20 0 29 20 16 33 -21 21 -13 47 14 47
l25 0 0 -105 0 -105 -419 0 -419 1 7 32 c8 41 7 59 -2 74 -6 9 -3 11 7 7 16
-6 20 0 30 49 5 19 2 27 -7 27 -10 0 -13 -8 -10 -24 3 -14 -1 -25 -9 -28 -9
-4 -13 4 -13 28 0 33 1 34 40 34 34 0 41 -3 41 -20 0 -13 -7 -20 -19 -20 -14
0 -17 -5 -12 -21 4 -12 1 -27 -8 -37 -18 -20 -26 -75 -12 -81 6 -1 9 10 7 26
-2 18 3 35 12 43 9 7 16 21 16 31 0 10 3 20 8 22 4 3 7 -26 7 -64 l-1 -69 333
0 333 0 0 90 0 90 -327 2 c-181 1 -294 4 -253 7 41 3 195 7 343 9 255 3 267 2
267 -15z m-42 -90 l-3 -78 -75 2 c-41 1 -184 2 -317 2 l-243 1 0 68 c0 38 3
72 7 75 3 4 148 7 320 7 l314 0 -3 -77z m2537 66 c18 -9 18 -9 -3 -5 -18 3
-63 -21 -170 -91 -80 -52 -175 -113 -209 -135 -35 -22 -63 -44 -63 -49 0 -5
-7 -9 -15 -9 -8 0 -15 7 -15 15 0 8 7 15 15 15 14 0 133 74 350 216 89 59 82
56 110 43z m178 -115 c93 -31 167 -58 165 -60 -2 -2 -80 21 -172 52 -92 30
-173 54 -180 52 -7 -2 -92 -55 -189 -118 -198 -129 -179 -104 -192 -260 -3
-36 -11 -118 -18 -183 l-13 -119 168 -159 c92 -87 163 -159 157 -159 -6 0 -84
73 -174 163 l-164 162 9 90 c6 50 12 105 14 123 4 27 2 33 -9 28 -8 -3 -15 -1
-15 3 0 5 6 11 14 14 10 4 17 31 22 86 3 44 12 88 18 97 16 22 357 243 376
244 8 0 91 -25 183 -56z m-1044 -53 c32 -30 39 -59 19 -79 -15 -15 -28 -16
-28 -2 0 6 8 11 18 11 16 1 16 2 0 6 -20 5 -25 23 -6 23 6 0 8 3 5 6 -4 4 -13
2 -20 -5 -8 -6 -23 -8 -32 -4 -13 4 -16 3 -11 -5 4 -7 3 -12 -2 -12 -5 0 -10
20 -10 45 -2 38 1 45 17 45 10 0 33 -13 50 -29z m-2512 -73 c-2 -18 -4 -4 -4
32 0 36 2 50 4 33 2 -18 2 -48 0 -65z m2433 72 c0 -5 -4 -10 -10 -10 -5 0 -10
5 -10 10 0 6 5 10 10 10 6 0 10 -4 10 -10z m200 -55 c0 -30 -4 -55 -9 -55 -6
0 -9 97 -2 108 7 12 11 -7 11 -53z m61 30 c2 -37 3 -43 12 -51 4 -4 7 11 7 34
l0 42 42 -3 c35 -2 43 -7 48 -26 l5 -24 13 28 c7 15 15 25 18 22 3 -3 1 -15
-6 -26 -9 -17 -8 -21 5 -21 10 0 15 -10 15 -30 0 -38 -26 -41 -40 -5 -5 14
-16 25 -24 25 -8 0 -17 6 -19 13 -3 6 -6 -5 -6 -25 -1 -33 -4 -38 -25 -38 -13
0 -27 6 -29 13 -4 9 -8 9 -15 -1 -5 -8 -18 -12 -28 -10 -14 2 -20 13 -22 42
-4 49 3 66 28 66 14 0 20 -7 21 -25z m1713 3 c25 -35 20 -80 -11 -110 -29 -26
-69 -46 -58 -28 3 6 12 10 19 10 21 0 44 33 47 67 3 23 -3 39 -20 57 -20 21
-21 26 -8 26 9 0 23 -10 31 -22z m-2004 3 c0 -5 -7 -14 -15 -21 -10 -9 -15 -9
-15 -1 0 6 5 11 11 11 5 0 7 5 4 10 -3 6 -1 10 4 10 6 0 11 -4 11 -9z m1398
-18 c6 -9 12 -22 11 -27 0 -6 -5 -1 -11 10 -5 12 -24 27 -42 33 l-31 11 30 -6
c17 -3 36 -12 43 -21z m-1368 -23 c0 -5 -5 -10 -11 -10 -5 0 -7 5 -4 10 3 6 8
10 11 10 2 0 4 -4 4 -10z m-1856 -25 c4 -10 -13 -14 -70 -17 -41 -2 -74 0 -74
5 0 4 -1 10 -2 15 -3 8 97 19 124 14 9 -2 19 -10 22 -17z m1799 18 c-7 -2 -13
-9 -13 -14 0 -6 5 -7 10 -4 6 3 10 2 10 -4 0 -5 -6 -12 -12 -14 -8 -3 -5 -6 6
-6 12 -1 16 -6 13 -16 -4 -8 -2 -17 3 -20 6 -4 10 -1 10 4 0 6 5 11 11 11 5 0
7 -5 3 -12 -5 -7 -3 -8 6 -3 10 6 7 12 -9 24 -26 20 -17 35 10 18 12 -8 19
-23 19 -45 0 -30 -2 -33 -22 -27 -30 9 -78 60 -78 84 0 18 13 29 35 29 6 0 4
-2 -2 -5z m97 -13 c0 -5 -4 -10 -10 -10 -5 0 -10 5 -10 10 0 6 5 10 10 10 6 0
10 -4 10 -10z m324 -14 c-3 -9 -10 -16 -15 -16 -6 0 -5 9 1 21 13 24 24 20 14
-5z m-2120 -8 c3 3 6 0 6 -7 0 -7 5 -9 10 -6 6 3 10 1 10 -5 0 -6 5 -8 10 -5
6 4 9 1 8 -7 -2 -7 2 -12 8 -11 6 1 22 -9 34 -22 13 -14 20 -25 16 -25 -4 0 1
-13 11 -30 9 -16 20 -30 23 -30 3 0 6 -16 7 -35 2 -19 -1 -35 -6 -35 -13 0
-32 26 -24 33 3 4 -2 7 -13 7 -15 0 -16 2 -5 9 11 7 10 11 -5 20 -11 6 -16 11
-11 11 4 0 1 13 -8 30 -19 37 -19 41 3 33 15 -6 15 -5 3 10 -12 15 -15 15 -32
-6 -16 -19 -18 -19 -19 -5 0 11 -19 28 -50 43 -27 14 -50 32 -50 40 0 13 4 14
34 1 19 -8 37 -12 40 -8z m876 -5 c21 -27 21 -35 19 -303 l-2 -275 -28 -27
-27 -28 -174 2 -173 2 175 6 c96 3 176 7 177 8 1 1 9 9 17 18 24 23 24 565 0
588 -24 25 -50 28 -223 24 -147 -3 -164 -5 -177 -22 -11 -16 -14 -74 -14 -298
0 -265 1 -279 20 -298 11 -11 16 -20 11 -20 -6 0 -17 10 -25 22 -14 19 -16 65
-16 302 0 359 -23 326 231 326 l188 0 21 -27z m890 17 c0 -5 -4 -10 -10 -10
-5 0 -10 5 -10 10 0 6 5 10 10 10 6 0 10 -4 10 -10z m983 -5 c8 -18 -11 -31
-25 -17 -11 11 -3 32 12 32 4 0 10 -7 13 -15z m837 -5 c0 -12 13 -28 33 -40
17 -11 25 -20 17 -20 -20 1 -44 20 -58 47 -15 27 -15 33 -2 33 6 0 10 -9 10
-20z m-3868 -17 c-7 -3 -33 -20 -58 -39 -25 -19 -49 -32 -55 -28 -14 8 7 32
60 66 33 20 48 25 55 17 8 -8 7 -13 -2 -16z m688 4 c0 -7 -4 -6 -11 3 -9 12
-10 10 -5 -9 3 -17 2 -21 -6 -13 -13 13 -2 46 12 37 5 -3 10 -12 10 -18z
m1428 -7 c-7 -11 -16 -20 -20 -20 -11 0 -10 9 5 25 18 21 29 18 15 -5z m-2831
-52 c-2 -13 -4 -3 -4 22 0 25 2 35 4 23 2 -13 2 -33 0 -45z m3814 -117 c24
-140 27 -175 17 -191 -10 -15 -10 -27 -1 -50 7 -20 8 -30 1 -30 -6 0 -7 -8 -3
-17 5 -14 1 -13 -14 4 -24 26 -28 41 -6 23 9 -8 15 -9 15 -2 0 6 -5 14 -10 17
-6 4 -8 16 -4 28 4 15 3 19 -4 12 -5 -5 -12 -19 -14 -30 -3 -18 -12 -20 -107
-23 -96 -3 -103 -1 -97 15 19 49 191 421 194 418 2 -2 17 -80 33 -174z m349
144 c0 -5 -5 -3 -10 5 -5 8 -10 20 -10 25 0 6 5 3 10 -5 5 -8 10 -19 10 -25z
m-2846 11 c-3 -8 -1 -17 5 -21 17 -10 13 -45 -5 -45 -9 0 -12 -5 -8 -12 4 -6
3 -8 -4 -4 -6 3 -8 16 -5 29 3 12 5 32 4 45 0 12 4 22 9 22 5 0 7 -6 4 -14z
m2231 4 c4 -6 -6 -10 -22 -10 -22 0 -25 2 -13 10 19 12 27 12 35 0z m447 -7
c5 -28 -3 -83 -13 -83 -5 0 -9 23 -9 50 0 48 15 70 22 33z m-3222 -21 c0 -13
-2 -14 -9 -3 -6 9 -11 10 -15 2 -4 -6 -11 -9 -16 -6 -5 3 -11 1 -15 -5 -3 -5
-15 -10 -26 -10 -32 0 -17 25 17 28 16 2 33 8 38 12 12 12 26 3 26 -18z m172
14 c-3 -5 2 -7 11 -3 9 3 18 0 21 -8 3 -8 12 -12 21 -9 9 4 15 1 15 -7 0 -7
11 -25 25 -39 l25 -26 -20 -22 c-12 -12 -26 -22 -32 -22 -7 0 -3 6 8 14 18 14
18 15 -11 46 -45 47 -65 56 -72 31 -3 -12 -9 -21 -14 -21 -12 0 -11 7 1 30 8
16 8 18 -5 14 -9 -4 -15 -1 -15 7 0 12 -2 12 -9 1 -6 -10 -10 -9 -14 7 -5 19
-1 21 33 19 21 -2 36 -7 32 -12z m575 8 c-3 -3 -12 -4 -19 -1 -8 3 -5 6 6 6
11 1 17 -2 13 -5z m40 0 c-3 -3 -12 -4 -19 -1 -8 3 -5 6 6 6 11 1 17 -2 13 -5z
m90 0 c-3 -3 -12 -4 -19 -1 -8 3 -5 6 6 6 11 1 17 -2 13 -5z m116 -1 c-13 -2
-35 -2 -50 0 -16 2 -5 4 22 4 28 0 40 -2 28 -4z m54 1 c-3 -3 -12 -4 -19 -1
-8 3 -5 6 6 6 11 1 17 -2 13 -5z m973 -4 c0 -5 -5 -10 -11 -10 -5 0 -7 5 -4
10 3 6 8 10 11 10 2 0 4 -4 4 -10z m1240 -35 c0 -25 -4 -45 -10 -45 -5 0 -10
20 -10 45 0 25 5 45 10 45 6 0 10 -20 10 -45z m-4163 -27 c-2 -13 -4 -5 -4 17
-1 22 1 32 4 23 2 -10 2 -28 0 -40z m943 14 c0 -7 -4 -10 -10 -7 -5 3 -10 16
-10 28 0 18 2 19 10 7 5 -8 10 -21 10 -28z m2660 14 c0 -22 -13 -56 -20 -56
-5 0 -5 13 0 29 7 24 5 29 -6 24 -8 -3 -11 -10 -7 -16 3 -6 1 -7 -5 -3 -17 11
4 47 23 40 8 -4 15 -11 15 -18z m105 -36 c-3 -4 1 -11 7 -13 8 -3 6 -6 -4 -6
-10 -1 -18 4 -18 10 0 8 -5 7 -16 -2 -13 -11 -15 -11 -13 2 4 23 -12 49 -30
49 -14 -1 -14 -2 2 -11 24 -14 22 -49 -3 -49 -11 0 -20 5 -20 11 0 5 5 7 10 4
6 -3 10 -1 10 4 0 6 -4 11 -10 11 -5 0 -10 9 -10 19 0 30 49 32 78 3 12 -13
20 -27 17 -32z m-3665 40 c0 -5 -4 -10 -10 -10 -5 0 -10 5 -10 10 0 6 5 10 10
10 6 0 10 -4 10 -10z m1638 3 c-10 -2 -28 -2 -40 0 -13 2 -5 4 17 4 22 1 32
-1 23 -4z m49 1 c-3 -3 -12 -4 -19 -1 -8 3 -5 6 6 6 11 1 17 -2 13 -5z m50 0
c-3 -3 -12 -4 -19 -1 -8 3 -5 6 6 6 11 1 17 -2 13 -5z m76 -1 c-13 -2 -33 -2
-45 0 -13 2 -3 4 22 4 25 0 35 -2 23 -4z m90 0 c-7 -2 -19 -2 -25 0 -7 3 -2 5
12 5 14 0 19 -2 13 -5z m2257 -23 c0 -16 -4 -30 -10 -30 -5 0 -10 14 -10 30 0
17 5 30 10 30 6 0 10 -13 10 -30z m-3409 -5 c-1 -3 -3 -4 -5 -2 -8 5 -45 -36
-40 -44 3 -5 0 -9 -5 -9 -17 0 -13 10 17 44 23 27 36 32 33 11z m459 5 c0 -5
-5 -10 -11 -10 -5 0 -7 5 -4 10 3 6 8 10 11 10 2 0 4 -4 4 -10z m1638 -11 c18
2 23 -2 20 -16 -2 -11 -13 -19 -29 -21 -35 -4 -52 -49 -32 -86 7 -14 20 -26
28 -26 8 0 15 -7 15 -15 0 -22 -43 -19 -74 6 -15 12 -25 28 -22 35 3 8 1 14
-4 14 -6 0 -10 7 -10 16 0 8 4 13 9 10 4 -3 6 5 3 19 -3 19 3 28 27 43 17 10
28 22 23 27 -4 5 0 4 8 -1 8 -4 26 -7 38 -5z m-2172 -11 c4 -6 -2 -19 -15 -29
-12 -10 -22 -20 -21 -23 2 -25 -1 -30 -9 -17 -10 16 7 63 20 55 5 -3 6 2 3 10
-7 18 11 22 22 4z m952 5 c-10 -2 -28 -2 -40 0 -13 2 -5 4 17 4 22 1 32 -1 23
-4z m109 1 c-3 -3 -12 -4 -19 -1 -8 3 -5 6 6 6 11 1 17 -2 13 -5z m76 -1 c-13
-2 -33 -2 -45 0 -13 2 -3 4 22 4 25 0 35 -2 23 -4z m90 0 c-13 -2 -33 -2 -45
0 -13 2 -3 4 22 4 25 0 35 -2 23 -4z m1257 -3 c-20 -13 -80 -13 -80 0 0 6 21
10 48 10 34 0 43 -3 32 -10z m351 -7 c13 -16 12 -17 -3 -4 -17 13 -22 21 -14
21 2 0 10 -8 17 -17z m1044 -41 c-5 -5 -45 36 -45 46 0 3 11 -5 25 -18 14 -13
23 -26 20 -28z m-4445 28 c0 -5 -2 -10 -4 -10 -3 0 -8 5 -11 10 -3 6 -1 10 4
10 6 0 11 -4 11 -10z m675 -1 c11 -17 -1 -21 -15 -4 -8 9 -8 15 -2 15 6 0 14
-5 17 -11z m2145 -6 c13 -11 20 -30 20 -52 0 -33 -1 -34 -14 -15 -12 15 -17
17 -27 7 -11 -11 -10 -13 3 -13 26 0 29 -28 5 -45 -12 -8 -27 -15 -34 -15 -15
0 -17 22 -3 36 9 9 16 58 10 79 -9 37 9 45 40 18z m-2608 -15 c-7 -7 -12 -8
-12 -2 0 14 12 26 19 19 2 -3 -1 -11 -7 -17z m1028 11 c0 -5 5 -7 10 -4 6 3
17 -1 26 -9 18 -19 17 -19 -25 -5 -29 10 -43 29 -21 29 6 0 10 -5 10 -11z
m470 -5 c0 -2 -16 -4 -36 -4 -19 0 -33 4 -30 8 5 8 66 4 66 -4z m100 0 c0 -2
-9 -4 -21 -4 -11 0 -18 4 -14 10 5 8 35 3 35 -6z m-247 -1 c-7 -2 -21 -2 -30
0 -10 3 -4 5 12 5 17 0 24 -2 18 -5z m64 1 c-3 -3 -12 -4 -19 -1 -8 3 -5 6 6
6 11 1 17 -2 13 -5z m2643 -27 c0 -5 -4 -5 -10 -2 -5 3 -10 14 -10 23 0 15 2
15 10 2 5 -8 10 -19 10 -23z m-1205 13 c4 -6 -13 -10 -44 -10 -28 0 -51 5 -51
10 0 6 20 10 44 10 25 0 48 -4 51 -10z m-2944 -23 c-10 -9 -11 -8 -5 6 3 10 9
15 12 12 3 -3 0 -11 -7 -18z m59 -2 c-7 -9 -15 -13 -17 -11 -7 7 7 26 19 26 6
0 6 -6 -2 -15z m1378 8 c-15 -2 -42 -2 -60 0 -18 2 -6 4 27 4 33 0 48 -2 33
-4z m69 1 c-3 -3 -12 -4 -19 -1 -8 3 -5 6 6 6 11 1 17 -2 13 -5z m129 -1 c-7
-7 -97 -5 -105 3 -2 2 22 4 54 4 32 0 55 -3 51 -7z m47 0 c-7 -2 -19 -2 -25 0
-7 3 -2 5 12 5 14 0 19 -2 13 -5z m937 -5 c-15 -6 -20 -12 -12 -15 14 -5 17
-23 3 -23 -5 0 -12 8 -15 17 -7 17 9 33 34 32 8 0 4 -5 -10 -11z m30 -18 c0
-5 -4 -10 -10 -10 -5 0 -10 5 -10 10 0 6 5 10 10 10 6 0 10 -4 10 -10z m1287
-6 c8 -21 -13 -42 -28 -27 -13 13 -5 43 11 43 6 0 13 -7 17 -16z m-3935 -26
c-9 -9 -12 -7 -12 12 0 19 3 21 12 12 9 -9 9 -15 0 -24z m2358 12 c0 -11 -2
-20 -4 -20 -2 0 -6 9 -9 20 -3 11 -1 20 4 20 5 0 9 -9 9 -20z m585 10 c4 -6
-15 -10 -50 -10 -35 0 -54 4 -50 10 3 6 26 10 50 10 24 0 47 -4 50 -10z
m-1512 -7 c-7 -2 -19 -2 -25 0 -7 3 -2 5 12 5 14 0 19 -2 13 -5z m175 0 c-21
-2 -57 -2 -80 0 -24 2 -7 4 37 4 44 0 63 -2 43 -4z m79 1 c-3 -3 -12 -4 -19
-1 -8 3 -5 6 6 6 11 1 17 -2 13 -5z m-1769 -65 l2 -34 -15 25 c-18 31 -19 53
-2 48 6 -3 13 -20 15 -39z m203 14 c-12 -20 -14 -14 -5 12 4 9 9 14 11 11 3
-2 0 -13 -6 -23z m894 -30 c-3 -78 -22 -143 -41 -143 -13 0 -15 6 -9 28 16 58
22 103 15 107 -4 3 -10 -11 -13 -30 -7 -43 -44 -119 -69 -142 -31 -28 -30 -8
1 43 28 45 38 86 40 157 1 23 4 27 20 22 11 -3 22 -1 26 5 3 5 12 10 19 10 10
0 13 -16 11 -57z m-1010 38 c3 -5 1 -12 -5 -16 -5 -3 -10 1 -10 9 0 18 6 21
15 7z m2935 -6 c-5 -10 -78 -16 -93 -8 -4 2 -5 9 -1 14 8 13 101 7 94 -6z
m181 -12 c13 -16 12 -17 -3 -4 -17 13 -22 21 -14 21 2 0 10 -8 17 -17z m-3414
-25 c-3 -8 -6 -5 -6 6 -1 11 2 17 5 13 3 -3 4 -12 1 -19z m346 -3 c-7 -21 -13
-19 -13 6 0 11 4 18 10 14 5 -3 7 -12 3 -20z m364 3 c-3 -8 -6 -5 -6 6 -1 11
2 17 5 13 3 -3 4 -12 1 -19z m1121 15 c-10 -2 -26 -2 -35 0 -10 3 -2 5 17 5
19 0 27 -2 18 -5z m3285 0 c-7 -2 -21 -2 -30 0 -10 3 -4 5 12 5 17 0 24 -2 18
-5z m-4438 -13 c-3 -5 -11 -10 -16 -10 -6 0 -7 5 -4 10 3 6 11 10 16 10 6 0 7
-4 4 -10z m-375 -20 c0 -22 -1 -23 -24 -14 -13 5 -14 9 -5 20 16 20 29 17 29
-6z m4200 -1 c0 -5 -4 -9 -10 -9 -5 0 -10 7 -10 16 0 8 5 12 10 9 6 -3 10 -10
10 -16z m535 13 c-18 -15 -85 -54 -85 -48 0 3 19 16 43 30 43 26 59 33 42 18z
m-5140 -11 c3 -5 1 -12 -5 -16 -5 -3 -10 1 -10 9 0 18 6 21 15 7z m3345 -1 c0
-5 -25 -10 -55 -10 -30 0 -55 5 -55 10 0 6 25 10 55 10 30 0 55 -4 55 -10z
m110 0 c0 -5 -2 -10 -4 -10 -3 0 -8 5 -11 10 -3 6 -1 10 4 10 6 0 11 -4 11
-10z m-1643 -6 c-3 -3 -12 -4 -19 -1 -8 3 -5 6 6 6 11 1 17 -2 13 -5z m81 -1
c-10 -2 -28 -2 -40 0 -13 2 -5 4 17 4 22 1 32 -1 23 -4z m99 1 c-3 -3 -12 -4
-19 -1 -8 3 -5 6 6 6 11 1 17 -2 13 -5z m1102 -45 c22 -23 34 -59 20 -59 -5 0
-9 7 -9 15 0 9 -11 27 -25 40 -13 14 -20 25 -15 25 5 0 18 -9 29 -21z m251 1
c0 -5 -25 -10 -55 -10 -30 0 -55 5 -55 10 0 6 25 10 55 10 30 0 55 -4 55 -10z
m1685 -5 c-10 -9 -77 -50 -147 -92 l-128 -77 0 -56 c0 -56 1 -57 51 -98 64
-52 55 -56 -12 -4 l-48 37 -1 65 0 65 148 87 c141 84 180 105 137 73z m155 9
c0 -3 -7 -13 -16 -21 -9 -9 -14 -26 -11 -40 3 -15 0 -22 -7 -20 -18 6 -19 47
0 68 16 18 34 25 34 13z m-2152 -37 c-1 -18 -3 -26 -5 -19 -3 6 -13 12 -22 12
-39 0 -32 34 8 37 16 1 19 -4 19 -30z m677 13 c-3 -5 -11 -10 -16 -10 -6 0 -7
5 -4 10 3 6 11 10 16 10 6 0 7 -4 4 -10z m1545 -24 c0 -25 -7 -39 -22 -50 -28
-20 -36 -12 -13 14 11 12 16 29 13 45 -4 17 -1 25 8 25 9 0 14 -12 14 -34z
m-5047 -1 c-7 -21 -13 -19 -13 6 0 11 4 18 10 14 5 -3 7 -12 3 -20z m647 15
c0 -5 -5 -10 -11 -10 -5 0 -7 5 -4 10 3 6 8 10 11 10 2 0 4 -4 4 -10z m421
-15 c11 6 12 5 2 -5 -10 -11 -15 -11 -28 0 -8 7 -15 17 -15 23 0 6 6 3 13 -8
9 -11 19 -15 28 -10z m2826 3 c2 -17 0 -19 -7 -8 -5 8 -6 18 -4 22 8 12 10 10
11 -14z m-1151 0 c4 -6 3 -8 -4 -4 -7 4 -10 -3 -8 -21 2 -16 4 -34 5 -41 0 -7
4 -11 9 -8 4 2 12 -6 19 -20 10 -22 9 -23 -9 -13 -10 6 -22 17 -25 25 -3 7 -9
12 -13 9 -5 -3 -6 5 -2 17 3 13 1 19 -5 15 -6 -4 -10 2 -9 14 0 11 8 24 16 29
19 12 17 12 26 -2z m394 -7 c0 -10 -53 -18 -87 -13 -45 7 -22 22 32 22 30 0
55 -4 55 -9z m410 -2 c0 -5 -4 -7 -10 -4 -6 4 -10 -5 -10 -20 0 -15 4 -24 10
-20 6 3 10 1 10 -4 0 -6 -7 -11 -15 -11 -10 0 -15 11 -15 35 0 24 5 35 15 35
8 0 15 -5 15 -11z m-740 -9 c0 -5 -4 -10 -10 -10 -5 0 -10 5 -10 10 0 6 5 10
10 10 6 0 10 -4 10 -10z m-2700 -10 c0 -5 -4 -10 -10 -10 -5 0 -10 5 -10 10 0
6 5 10 10 10 6 0 10 -4 10 -10z m-200 -20 c0 -5 -4 -10 -10 -10 -5 0 -10 5
-10 10 0 6 5 10 10 10 6 0 10 -4 10 -10z m2910 0 c0 -6 8 -10 18 -8 10 2 17
-3 17 -12 0 -9 -11 -16 -26 -18 -23 -3 -27 0 -25 22 1 24 16 38 16 16z m1988
-10 c-7 -10 -14 -17 -17 -15 -4 4 18 35 25 35 2 0 -1 -9 -8 -20z m-3655 -12
c4 -12 4 -24 2 -27 -3 -2 -5 1 -5 7 0 6 -19 -7 -42 -29 -40 -37 -68 -50 -68
-30 0 5 7 14 15 21 8 7 12 16 9 21 -3 5 2 9 11 9 10 0 26 11 37 25 24 31 34
31 41 3z m1987 7 c0 -12 -13 -15 -55 -15 -42 0 -55 3 -55 15 0 12 13 15 55 15
42 0 55 -3 55 -15z m-3130 -50 c0 -8 -4 -15 -9 -15 -13 0 -22 16 -14 24 11 11
23 6 23 -9z m3128 -2 c3 -10 -12 -13 -52 -13 -51 0 -66 7 -50 22 11 11 97 3
102 -9z m-331 -15 c-3 -8 -6 -5 -6 6 -1 11 2 17 5 13 3 -3 4 -12 1 -19z m493
-1 c0 -6 51 -63 113 -127 l112 -115 -125 120 c-69 66 -127 121 -129 122 -1 1
0 7 4 12 8 13 25 5 25 -12z m775 -27 c-22 -22 -43 -40 -48 -40 -5 0 11 19 35
43 54 53 65 51 13 -3z m1055 40 c0 -5 -2 -10 -4 -10 -3 0 -8 5 -11 10 -3 6 -1
10 4 10 6 0 11 -4 11 -10z m-4160 -10 c0 -5 -2 -10 -4 -10 -3 0 -8 5 -11 10
-3 6 -1 10 4 10 6 0 11 -4 11 -10z m4030 6 c0 -3 -4 -8 -10 -11 -5 -3 -10 -1
-10 4 0 6 5 11 10 11 6 0 10 -2 10 -4z m-3630 -13 c0 -10 -20 -40 -20 -31 0 3
-3 13 -6 22 -4 11 -1 16 10 16 9 0 16 -3 16 -7z m2391 -13 c10 -6 19 -17 19
-26 0 -8 8 -18 17 -21 15 -6 15 -7 -2 -13 -23 -8 -65 -1 -65 12 0 5 5 6 10 3
16 -10 12 11 -5 25 -31 26 -61 -29 -32 -60 10 -12 9 -12 -5 -1 -11 8 -18 9
-18 3 0 -6 8 -16 18 -21 9 -6 13 -11 8 -11 -19 0 -46 34 -46 58 0 51 52 77
101 52z m429 -10 c-6 -11 -13 -20 -16 -20 -2 0 0 9 6 20 6 11 13 20 16 20 2 0
0 -9 -6 -20z m-3455 0 c-3 -5 -11 -10 -16 -10 -6 0 -7 5 -4 10 3 6 11 10 16
10 6 0 7 -4 4 -10z m283 -12 c-6 -16 -63 -37 -105 -37 -52 -1 -39 15 25 31 75
20 84 20 80 6z m1802 -3 c0 -8 -8 -15 -18 -15 -10 0 -27 -7 -38 -15 -26 -20
-33 -19 -27 4 8 33 83 56 83 26z m320 5 c0 -5 -25 -10 -55 -10 -30 0 -55 5
-55 10 0 6 25 10 55 10 30 0 55 -4 55 -10z m-2325 -20 c3 -5 -1 -10 -9 -10 -9
0 -16 5 -16 10 0 6 4 10 9 10 6 0 13 -4 16 -10z m35 -10 c0 -5 -4 -10 -10 -10
-5 0 -10 5 -10 10 0 6 5 10 10 10 6 0 10 -4 10 -10z m-840 -10 c0 -5 -4 -10
-10 -10 -5 0 -10 5 -10 10 0 6 5 10 10 10 6 0 10 -4 10 -10z m2890 -36 c0 -13
-4 -24 -10 -24 -5 0 -10 14 -10 31 0 17 4 28 10 24 6 -3 10 -17 10 -31z m1920
10 c0 -2 -7 -4 -15 -4 -8 0 -15 4 -15 10 0 5 7 7 15 4 8 -4 15 -8 15 -10z
m-2080 -15 c0 -31 18 -59 46 -69 13 -5 24 -14 24 -20 0 -15 -32 -12 -57 5 -23
16 -48 78 -38 95 11 17 25 11 25 -11z m97 5 c4 -10 -1 -22 -10 -29 -10 -7 -17
-17 -17 -24 0 -15 -10 -14 -32 6 -22 20 -25 58 -3 49 8 -3 15 -1 15 4 0 17 40
11 47 -6z m1293 -14 c-6 -11 -13 -20 -16 -20 -2 0 0 9 6 20 6 11 13 20 16 20
2 0 0 -9 -6 -20z m-4225 -9 c3 -5 1 -12 -5 -16 -5 -3 -10 1 -10 9 0 18 6 21
15 7z m205 -26 c0 -8 -4 -15 -10 -15 -5 0 -10 7 -10 15 0 8 5 15 10 15 6 0 10
-7 10 -15z m1168 -239 l-3 -201 -2 200 -3 199 -28 31 -27 30 33 -29 32 -30 -2
-200z m1618 243 c8 -14 -11 -33 -25 -25 -11 7 -4 36 9 36 5 0 12 -5 16 -11z
m-316 -9 c0 -5 -4 -10 -10 -10 -5 0 -10 5 -10 10 0 6 5 10 10 10 6 0 10 -4 10
-10z m-2583 -32 c-3 -8 -6 -5 -6 6 -1 11 2 17 5 13 3 -3 4 -12 1 -19z m4706
15 c-7 -2 -21 -2 -30 0 -10 3 -4 5 12 5 17 0 24 -2 18 -5z m120 0 c-7 -2 -19
-2 -25 0 -7 3 -2 5 12 5 14 0 19 -2 13 -5z m-4213 -13 c0 -5 -5 -10 -11 -10
-5 0 -7 5 -4 10 3 6 8 10 11 10 2 0 4 -4 4 -10z m3413 -7 c-7 -2 -19 -2 -25 0
-7 3 -2 5 12 5 14 0 19 -2 13 -5z m-70 -10 c-7 -2 -21 -2 -30 0 -10 3 -4 5 12
5 17 0 24 -2 18 -5z m-2191 -370 l-3 -367 133 -134 c73 -73 143 -138 156 -143
13 -5 22 -14 20 -21 -7 -20 -28 -21 -34 -1 -4 10 -69 81 -145 158 l-138 140
-3 368 c-2 240 0 367 7 367 7 0 9 -127 7 -367z m1460 0 l-3 -368 -143 -145
c-79 -80 -146 -152 -148 -160 -4 -11 -8 -12 -18 -3 -14 13 -6 33 13 33 7 0 74
62 150 138 l138 138 -3 367 c-2 240 0 367 7 367 7 0 9 -127 7 -367z m656 360
c-10 -2 -26 -2 -35 0 -10 3 -2 5 17 5 19 0 27 -2 18 -5z m-2658 -178 c0 -110
-4 -175 -10 -175 -6 0 -10 65 -10 175 0 110 4 175 10 175 6 0 10 -65 10 -175z
m2578 168 c-10 -2 -28 -2 -40 0 -13 2 -5 4 17 4 22 1 32 -1 23 -4z m-80 -10
c-10 -2 -26 -2 -35 0 -10 3 -2 5 17 5 19 0 27 -2 18 -5z m-2878 -18 c0 -8 -5
-15 -12 -15 -7 0 -27 -14 -45 -32 -23 -22 -36 -29 -43 -22 -8 8 2 22 30 47 42
39 70 47 70 22z m-1045 -4 c3 -5 1 -12 -5 -16 -5 -3 -10 1 -10 9 0 18 6 21 15
7z m1883 -4 c6 0 12 -5 12 -10 0 -6 -23 -7 -60 -4 -35 4 -62 3 -65 -3 -7 -11
-108 -14 -118 -4 -3 3 -3 13 0 21 5 13 22 14 112 8 58 -4 112 -8 119 -8z
m-1478 -7 c0 -5 -4 -10 -10 -10 -5 0 -10 5 -10 10 0 6 5 10 10 10 6 0 10 -4
10 -10z m3371 -7 c13 -16 12 -17 -3 -4 -10 7 -18 15 -18 17 0 8 8 3 21 -13z
m-3674 -25 c-3 -8 -6 -5 -6 6 -1 11 2 17 5 13 3 -3 4 -12 1 -19z m983 1 c-14
-6 -37 -17 -52 -24 -16 -8 -28 -10 -28 -5 0 17 44 40 75 39 l30 0 -25 -10z
m80 -18 c0 -5 -11 -4 -24 2 -13 7 -22 15 -20 19 6 10 44 -9 44 -21z m220 25
c0 -3 -4 -8 -10 -11 -5 -3 -10 -1 -10 4 0 6 5 11 10 11 6 0 10 -2 10 -4z m0
-36 c0 -5 -4 -10 -10 -10 -5 0 -10 5 -10 10 0 6 5 10 10 10 6 0 10 -4 10 -10z
m340 -5 c0 -10 -11 -15 -35 -15 -24 0 -35 5 -35 15 0 10 11 15 35 15 24 0 35
-5 35 -15z m-957 -10 c-3 -9 -8 -14 -10 -11 -3 3 -2 9 2 15 9 16 15 13 8 -4z
m371 -6 c34 -27 36 -78 4 -105 -23 -19 -23 -19 -5 2 35 42 7 114 -45 114 -32
0 -45 -11 -62 -50 -8 -19 -15 -29 -16 -22 0 19 28 69 42 75 27 11 56 6 82 -14z
m3756 17 c0 -2 -7 -7 -16 -10 -8 -3 -12 -2 -9 4 6 10 25 14 25 6z m47 -2 c-3
-3 -12 -4 -19 -1 -8 3 -5 6 6 6 11 1 17 -2 13 -5z m43 -4 c0 -5 -2 -10 -4 -10
-3 0 -8 5 -11 10 -3 6 -1 10 4 10 6 0 11 -4 11 -10z m-4593 -42 c-3 -7 -5 -2
-5 12 0 14 2 19 5 13 2 -7 2 -19 0 -25z m3703 22 c51 -5 -4 -7 -175 -8 l-251
-2 -57 -58 -57 -58 2 -124 c3 -122 3 -126 31 -153 15 -15 32 -25 37 -22 6 3 7
0 5 -7 -11 -29 37 -57 105 -61 l65 -3 -65 -2 c-63 -2 -66 -1 -108 38 -24 22
-46 40 -50 40 -4 0 -13 14 -21 32 -10 22 -13 66 -12 152 l2 121 62 63 61 62
176 -1 c96 -1 209 -5 250 -9z m924 -18 c31 -18 93 -89 84 -97 -2 -3 -16 12
-29 32 -34 52 -79 76 -145 77 -35 0 -48 3 -37 8 25 11 93 0 127 -20z m-3634 8
c0 -5 -4 -10 -10 -10 -5 0 -10 5 -10 10 0 6 5 10 10 10 6 0 10 -4 10 -10z
m3427 -10 c-14 -11 -28 -20 -32 -20 -10 0 38 39 49 40 5 0 -3 -9 -17 -20z
m-87 6 c0 -2 -7 -7 -16 -10 -8 -3 -12 -2 -9 4 6 10 25 14 25 6z m-3032 -23
c-4 -24 -38 -26 -38 -2 0 13 7 19 21 19 14 0 19 -5 17 -17z m3194 6 c-30 -9
-32 -12 -20 -27 12 -15 11 -16 -4 -4 -14 11 -20 10 -38 -8 -32 -32 -52 -87
-45 -126 3 -25 2 -33 -6 -28 -22 13 -2 104 31 145 16 21 26 39 22 42 -4 2 -2
3 3 2 6 -1 19 1 30 6 11 4 29 8 40 7 11 0 5 -4 -13 -9z m-4692 -19 c0 -5 -5
-10 -11 -10 -5 0 -7 5 -4 10 3 6 8 10 11 10 2 0 4 -4 4 -10z m1190 -75 c0 -50
-4 -85 -10 -85 -6 0 -10 35 -10 85 0 50 4 85 10 85 6 0 10 -35 10 -85z m2614
59 c9 -3 16 -13 16 -22 0 -14 -1 -14 -12 0 -7 9 -24 19 -38 21 -22 4 -22 4 -3
6 12 0 28 -2 37 -5z m93 -11 c10 -10 13 -14 6 -9 -7 5 -28 12 -46 16 -29 7
-30 8 -6 9 15 1 35 -7 46 -16z m-167 -5 c-8 -7 -20 -20 -28 -28 -12 -13 -13
-13 -6 0 12 25 26 40 37 40 6 0 5 -6 -3 -12z m-2986 -13 c-4 -8 -8 -15 -10
-15 -2 0 -4 7 -4 15 0 8 4 15 10 15 5 0 7 -7 4 -15z m107 -2 c13 -16 12 -17
-3 -4 -10 7 -18 15 -18 17 0 8 8 3 21 -13z m669 -3 c0 -16 -7 -20 -30 -20 -23
0 -30 4 -30 20 0 16 7 20 30 20 23 0 30 -4 30 -20z m980 -22 c0 -19 -16 -5
-17 14 -2 18 0 20 7 8 5 -8 10 -18 10 -22z m976 17 c16 -8 23 -15 16 -15 -7 0
-20 -7 -28 -15 -18 -17 -44 -9 -44 14 0 34 14 38 56 16z m304 -19 c0 -8 -8
-20 -17 -27 -16 -13 -17 -12 -4 3 7 10 11 25 7 33 -3 9 -2 13 4 10 6 -3 10
-12 10 -19z m420 9 c0 -21 -30 -31 -40 -14 -11 17 -3 29 21 29 10 0 19 -7 19
-15z m-3370 -10 c20 -24 6 -28 -15 -5 -10 11 -13 20 -8 20 6 0 16 -7 23 -15z
m83 8 c-7 -2 -21 -2 -30 0 -10 3 -4 5 12 5 17 0 24 -2 18 -5z m1522 -11 c-3
-3 -11 0 -18 7 -9 10 -8 11 6 5 10 -3 15 -9 12 -12z m1382 -4 c-3 -8 -6 -5 -6
6 -1 11 2 17 5 13 3 -3 4 -12 1 -19z m653 18 c0 -3 -4 -8 -10 -11 -5 -3 -10
-1 -10 4 0 6 5 11 10 11 6 0 10 -2 10 -4z m-4543 -43 c-3 -10 -5 -4 -5 12 0
17 2 24 5 18 2 -7 2 -21 0 -30z m2728 18 c-2 -5 4 -16 15 -26 27 -25 25 -35
-7 -35 -24 0 -25 -1 -11 -17 8 -10 18 -24 22 -30 14 -25 -1 -12 -32 26 -31 39
-32 40 -15 70 10 16 21 27 25 25 5 -3 6 -9 3 -13z m945 -7 c0 -2 -9 0 -20 6
-11 6 -20 13 -20 16 0 2 9 0 20 -6 11 -6 20 -13 20 -16z m-2644 1 c-11 -8 -38
-14 -60 -13 -41 1 -41 1 -6 5 19 3 39 9 45 14 5 5 16 9 25 9 12 -1 11 -4 -4
-15z m2758 0 c3 -10 -5 -20 -25 -30 -16 -9 -34 -26 -40 -38 -8 -19 -9 -19 -6
-2 1 10 16 29 33 40 17 11 29 26 26 33 -5 17 5 15 12 -3z m823 -7 c-3 -8 -6
-5 -6 6 -1 11 2 17 5 13 3 -3 4 -12 1 -19z m-4572 -8 c3 -5 1 -10 -4 -10 -6 0
-11 5 -11 10 0 6 2 10 4 10 3 0 8 -4 11 -10z m1545 -5 c0 -9 -9 -15 -25 -15
-16 0 -25 6 -25 15 0 9 9 15 25 15 16 0 25 -6 25 -15z m886 -11 c-4 -9 -9 -15
-11 -12 -3 3 -3 13 1 22 4 9 9 15 11 12 3 -3 3 -13 -1 -22z m1421 -36 c-2 -13
-4 -3 -4 22 0 25 2 35 4 23 2 -13 2 -33 0 -45z m790 40 c-3 -8 -6 -5 -6 6 -1
11 2 17 5 13 3 -3 4 -12 1 -19z m310 -15 c-3 -10 -5 -4 -5 12 0 17 2 24 5 18
2 -7 2 -21 0 -30z m-20 -10 c-3 -10 -5 -4 -5 12 0 17 2 24 5 18 2 -7 2 -21 0
-30z m-4840 5 c-3 -8 -6 -5 -6 6 -1 11 2 17 5 13 3 -3 4 -12 1 -19z m3673 5
c-8 -3 -23 -12 -32 -21 -22 -19 -24 -9 -2 12 8 9 23 16 32 15 14 0 14 -2 2 -6z
m149 4 c-2 -1 -15 -11 -29 -22 l-25 -20 19 23 c11 12 24 22 29 22 6 0 8 -1 6
-3z m-1134 -99 c16 -56 11 -87 -16 -85 -23 2 -24 13 -5 33 17 17 16 27 -12 80
-11 23 -18 45 -14 48 10 11 31 -23 47 -76z m-1245 57 c0 -8 -9 -15 -20 -15
-11 0 -20 7 -20 15 0 8 9 15 20 15 11 0 20 -7 20 -15z m3050 -6 c0 -5 -4 -9
-8 -9 -5 0 -9 7 -9 15 0 8 4 12 9 9 4 -3 8 -9 8 -15z m-1044 2 c5 -6 32 -12
59 -14 l50 -3 -52 -2 c-29 -1 -53 -6 -53 -12 0 -13 -37 -13 -45 0 -17 27 18
53 41 31z m643 6 c-2 -1 -13 -9 -24 -17 -19 -14 -19 -14 -6 3 7 9 18 17 24 17
6 0 8 -1 6 -3z m741 -6 c0 -4 -11 -25 -25 -45 -24 -36 -22 -47 5 -23 12 10 12
9 0 -6 -7 -10 -23 -23 -34 -29 -19 -10 -20 -10 -7 5 17 21 11 21 -25 2 -16 -8
-38 -15 -49 -14 -11 0 -3 6 18 12 41 13 93 57 102 88 7 20 15 25 15 10z
m-3605 -21 c4 -6 3 -9 -2 -8 -4 1 -19 -5 -33 -14 -29 -19 -90 -31 -90 -17 0 5
14 9 31 9 17 0 42 9 56 20 30 23 30 23 38 10z m2386 -7 c13 -16 12 -17 -3 -4
-10 7 -18 15 -18 17 0 8 8 3 21 -13z m299 14 c0 -2 -10 -12 -22 -23 l-23 -19
19 23 c18 21 26 27 26 19z m-241 -10 c-2 -1 -13 -9 -24 -17 -19 -14 -19 -14
-6 3 7 9 18 17 24 17 6 0 8 -1 6 -3z m1162 -20 c-10 -9 -11 -8 -5 6 3 10 9 15
12 12 3 -3 0 -11 -7 -18z m-2401 3 c0 -5 -2 -10 -4 -10 -3 0 -8 5 -11 10 -3 6
-1 10 4 10 6 0 11 -4 11 -10z m185 -20 l20 -25 -22 19 c-13 11 -23 24 -23 29
0 6 1 8 3 6 1 -2 11 -15 22 -29z m1895 -5 c0 -5 -5 -3 -10 5 -5 8 -10 20 -10
25 0 6 5 3 10 -5 5 -8 10 -19 10 -25z m-3070 0 c0 -8 -9 -15 -20 -15 -11 0
-20 7 -20 15 0 8 9 15 20 15 11 0 20 -7 20 -15z m1062 -3 c-7 -2 -12 -8 -12
-13 0 -6 4 -8 9 -5 10 6 22 -17 26 -52 2 -12 -1 -20 -5 -17 -5 3 -7 11 -5 18
3 7 0 19 -5 27 -9 13 -11 13 -21 0 -9 -13 -10 -12 -5 3 5 15 2 17 -14 12 -11
-4 -20 -2 -20 3 0 14 43 41 55 34 5 -3 4 -7 -3 -10z m1929 1 c13 -16 12 -17
-3 -4 -17 13 -22 21 -14 21 2 0 10 -8 17 -17z m-3121 -8 c11 -13 10 -14 -4 -9
-9 3 -16 10 -16 15 0 13 6 11 20 -6z m2230 -38 l-34 -32 30 36 c16 20 31 34
33 32 3 -2 -10 -18 -29 -36z m217 21 c-3 -8 -6 -5 -6 6 -1 11 2 17 5 13 3 -3
4 -12 1 -19z m819 1 c19 -22 19 -22 -3 -8 -13 8 -23 17 -23 21 0 12 6 9 26
-13z m-3468 -14 c-3 -3 -9 2 -12 12 -6 14 -5 15 5 6 7 -7 10 -15 7 -18z m2547
5 c10 -11 16 -20 13 -20 -3 0 -13 9 -23 20 -10 11 -16 20 -13 20 3 0 13 -9 23
-20z m63 -5 c-3 -3 -9 2 -12 12 -6 14 -5 15 5 6 7 -7 10 -15 7 -18z m-2514 6
c3 -5 0 -9 -7 -8 -34 1 -49 -4 -44 -15 2 -7 1 -22 -4 -33 -6 -16 -8 -14 -8 12
-1 20 5 36 17 42 21 13 39 14 46 2z m1145 -12 c-8 -15 -8 -19 0 -15 7 5 10 -2
9 -18 -1 -15 -6 -26 -11 -26 -5 0 -4 -6 2 -13 6 -8 7 -17 3 -22 -4 -4 3 -2 16
4 19 10 22 9 22 -6 0 -10 -4 -24 -9 -32 -7 -11 -11 -10 -21 5 -9 16 -11 16 -6
2 3 -10 1 -20 -4 -23 -11 -7 -12 -6 -15 55 -1 25 -5 56 -10 69 -5 16 -3 26 6
32 23 15 30 10 18 -12z m2202 4 c13 -16 12 -17 -3 -4 -10 7 -18 15 -18 17 0 8
8 3 21 -13z m-1911 -7 c0 -20 -17 -29 -26 -15 -5 8 -3 9 6 4 10 -6 12 -4 7 8
-3 10 -2 17 3 17 6 0 10 -6 10 -14z m-321 -40 c-3 -3 -11 5 -18 17 -13 21 -12
21 5 5 10 -10 16 -20 13 -22z m404 15 c3 -13 0 -18 -8 -15 -9 4 -11 -5 -8 -33
2 -21 5 -44 8 -50 2 -7 0 -13 -5 -13 -9 0 -14 15 -11 33 1 5 -4 7 -10 5 -16
-5 -21 -41 -8 -49 6 -4 4 -9 -6 -12 -9 -4 -14 -3 -11 2 7 11 -22 23 -36 14 -6
-3 -8 -1 -4 5 3 6 0 16 -7 24 -20 20 -40 59 -33 66 3 3 6 0 6 -6 0 -7 7 -12
16 -12 8 0 12 -4 9 -10 -3 -5 -1 -10 4 -10 6 0 10 -3 10 -7 -4 -23 3 -33 22
-33 11 0 17 4 14 10 -3 5 3 15 14 21 21 14 18 39 -5 39 -8 0 -14 5 -14 11 0 6
6 9 14 6 16 -6 40 16 29 26 -3 4 -2 7 4 7 6 0 13 -9 16 -19z m690 7 c15 -7 27
-17 27 -21 0 -5 -5 -5 -11 -2 -5 4 -19 -1 -29 -10 -23 -21 -40 -12 -40 21 0
27 13 30 53 12z m1306 7 c-8 -7 -78 -9 -85 -2 -4 4 14 7 41 7 27 0 46 -2 44
-5z m-3616 -58 c-3 -7 -3 -9 1 -5 9 7 46 -27 46 -42 0 -5 -5 -10 -11 -10 -5 0
-7 4 -4 10 3 5 0 8 -7 5 -7 -3 -24 11 -37 30 -20 30 -21 37 -10 51 12 14 14
14 21 -6 4 -12 5 -27 1 -33z m1393 26 c-10 -10 -19 5 -10 18 6 11 8 11 12 0 2
-7 1 -15 -2 -18z m-1286 -14 c-6 -10 -18 -18 -28 -18 -16 1 -16 2 1 6 9 2 17
13 17 24 0 11 5 17 10 14 7 -4 7 -13 0 -26z m3460 15 c0 -2 -7 -4 -15 -4 -8 0
-15 4 -15 10 0 5 7 7 15 4 8 -4 15 -8 15 -10z m-2204 -50 c-9 -46 -26 -44 -25
4 1 33 2 34 9 12 7 -23 8 -22 10 10 1 19 4 29 7 22 3 -7 2 -29 -1 -48z m44 27
c0 -6 -4 -13 -10 -16 -5 -3 -10 1 -10 9 0 9 5 16 10 16 6 0 10 -4 10 -9z
m-200 -26 c0 -14 -4 -25 -9 -25 -4 0 -6 11 -3 25 2 14 6 25 8 25 2 0 4 -11 4
-25z m252 3 c-6 -6 -17 -13 -24 -14 -7 -1 -21 -5 -30 -9 -11 -4 -18 -3 -18 4
0 11 4 12 39 15 11 0 23 4 27 9 4 4 10 7 13 7 3 0 0 -5 -7 -12z m-146 -16 c-5
-8 18 -44 28 -43 24 3 30 0 16 -8 -8 -6 -17 -8 -21 -5 -4 2 -10 0 -14 -6 -7
-12 10 -20 50 -24 21 -2 29 -9 32 -27 3 -23 3 -23 -11 -4 -9 11 -16 16 -16 11
0 -5 -7 -3 -15 4 -13 11 -14 10 -10 -2 5 -12 0 -14 -20 -10 -18 3 -24 9 -20
20 3 8 0 22 -7 30 -9 11 -9 14 -1 9 6 -4 14 -3 18 3 3 5 1 10 -5 10 -6 0 -9 4
-5 9 3 5 1 12 -5 16 -13 8 -13 25 1 25 5 0 8 -3 5 -8z m118 -27 c3 -8 1 -15
-4 -15 -6 0 -10 7 -10 15 0 8 2 15 4 15 2 0 6 -7 10 -15z m226 -39 c-23 -38
-33 -39 -51 -4 -8 15 -8 19 1 13 18 -11 62 16 55 34 -5 12 -3 13 5 5 8 -8 5
-21 -10 -48z m-110 8 c0 -2 -9 -8 -19 -13 -14 -8 -20 -7 -24 2 -3 7 5 13 19
13 13 1 24 0 24 -2z m-320 -14 c0 -5 -6 -10 -12 -11 -10 0 -10 -2 0 -6 17 -7
15 -33 -3 -33 -16 0 -19 17 -9 44 7 18 24 22 24 6z m58 -17 c0 -25 -14 -29
-39 -10 -22 16 -13 37 16 35 16 -2 23 -8 23 -25z m185 10 c-13 -8 -23 -22 -23
-30 0 -8 -5 -11 -11 -8 -12 8 28 55 45 54 6 0 1 -7 -11 -16z m-1356 -40 c-3
-10 -5 -2 -5 17 0 19 2 27 5 18 2 -10 2 -26 0 -35z m374 -24 c-9 -3 -22 -4
-30 -1 -7 3 -17 -1 -22 -9 -6 -10 -9 -10 -9 -1 0 7 -15 12 -40 12 -25 0 -40
-5 -40 -12 0 -9 -3 -8 -9 2 -7 11 1 20 37 40 l46 27 42 -26 c32 -20 38 -27 25
-32z m1240 38 c-10 -9 -11 -8 -5 6 3 10 9 15 12 12 3 -3 0 -11 -7 -18z m-191
3 c0 -5 -5 -10 -11 -10 -5 0 -7 5 -4 10 3 6 8 10 11 10 2 0 4 -4 4 -10z m170
-4 c0 -2 -11 -6 -25 -8 -14 -3 -25 -1 -25 3 0 5 11 9 25 9 14 0 25 -2 25 -4z
m-2408 -13 c-51 -2 -132 -2 -180 0 -48 1 -6 3 93 3 99 0 138 -2 87 -3z m748
-148 c0 -85 -3 -155 -7 -155 -5 0 -7 67 -5 150 l3 150 -233 3 -233 2 238 3
237 2 0 -155z m3240 140 c0 -8 -4 -15 -10 -15 -5 0 -7 7 -4 15 4 8 8 15 10 15
2 0 4 -7 4 -15z m17 -7 c-3 -8 -6 -5 -6 6 -1 11 2 17 5 13 3 -3 4 -12 1 -19z
m57 7 c3 -8 1 -15 -4 -15 -6 0 -10 7 -10 15 0 8 2 15 4 15 2 0 6 -7 10 -15z
m233 -7 c-3 -8 -6 -5 -6 6 -1 11 2 17 5 13 3 -3 4 -12 1 -19z m-4139 0 c-2 -8
8 -13 24 -13 19 1 24 -3 18 -10 -14 -17 12 -48 33 -39 23 9 21 20 -8 49 -13
14 -20 25 -15 25 15 0 50 -38 50 -54 0 -7 9 -16 20 -19 26 -7 25 1 -2 32 l-23
26 28 -24 c15 -14 27 -32 27 -42 0 -10 5 -21 10 -24 6 -3 10 -14 9 -23 0 -13
-2 -13 -6 -3 -9 22 -36 51 -49 51 -21 0 -26 -34 -8 -47 23 -17 28 -10 14 16
-6 12 -8 21 -6 21 11 0 32 -56 29 -72 -3 -10 0 -18 6 -18 6 0 11 5 11 12 0 6
2 9 5 6 11 -11 -8 -39 -36 -53 -15 -8 -30 -24 -34 -35 -3 -11 -16 -25 -28 -31
-19 -9 -20 -8 -6 3 9 7 19 23 23 36 6 19 4 22 -17 22 -26 0 -44 -25 -24 -34 7
-2 -4 -4 -23 -5 -32 0 -33 1 -12 11 20 10 26 23 25 56 -1 16 5 15 23 -3 9 -8
21 -15 27 -14 9 0 9 2 0 5 -7 3 -10 11 -7 18 3 8 -4 16 -15 19 -24 6 -63 -27
-55 -48 5 -12 2 -13 -12 -8 -24 9 -44 28 -44 42 0 6 -9 15 -20 21 -11 6 -20 9
-20 6 0 -10 66 -112 80 -124 12 -11 11 -11 -10 0 -14 7 -29 11 -34 10 -11 -4
-46 28 -46 42 0 6 7 0 16 -12 8 -12 19 -22 25 -22 15 0 10 30 -6 36 -8 4 -13
9 -10 14 2 4 -2 16 -10 26 -8 10 -14 30 -15 44 0 19 3 21 9 11 8 -12 12 -12
25 -2 9 8 16 20 16 28 0 8 5 11 10 8 6 -3 10 -1 10 4 0 17 -28 13 -40 -6 -10
-17 -10 -16 -8 2 2 10 12 28 22 39 15 15 17 21 6 24 -7 3 -22 -5 -32 -18 -10
-12 -18 -18 -18 -12 0 14 28 35 64 48 17 7 32 12 34 13 1 0 1 -5 0 -11z m2077
2 c3 -5 1 -10 -4 -10 -6 0 -11 5 -11 10 0 6 2 10 4 10 3 0 8 -4 11 -10z m40 0
c3 -5 1 -10 -4 -10 -6 0 -11 5 -11 10 0 6 2 10 4 10 3 0 8 -4 11 -10z m-241
-15 c3 -8 1 -15 -3 -15 -5 0 -11 7 -15 15 -3 8 -1 15 3 15 5 0 11 -7 15 -15z
m63 -10 c0 -8 -4 -15 -9 -15 -10 0 -11 14 -1 23 9 10 10 9 10 -8z m83 5 c0 -5
-2 -10 -4 -10 -3 0 -8 5 -11 10 -3 6 -1 10 4 10 6 0 11 -4 11 -10z m-265 -10
c-3 -5 -11 -10 -16 -10 -6 0 -7 5 -4 10 3 6 11 10 16 10 6 0 7 -4 4 -10z m375
-6 c0 -8 -5 -12 -10 -9 -6 4 -8 11 -5 16 9 14 15 11 15 -7z m-2457 -19 c-7
-21 -13 -19 -13 6 0 11 4 18 10 14 5 -3 7 -12 3 -20z m704 3 c-3 -8 -6 -5 -6
6 -1 11 2 17 5 13 3 -3 4 -12 1 -19z m3001 15 c-120 -2 -316 -2 -435 0 -120 1
-22 2 217 2 239 0 337 -1 218 -2z m-3741 -25 c-3 -8 -6 -5 -6 6 -1 11 2 17 5
13 3 -3 4 -12 1 -19z m73 7 c0 -8 -4 -15 -10 -15 -5 0 -7 7 -4 15 4 8 8 15 10
15 2 0 4 -7 4 -15z m648 -10 c-3 -3 -9 2 -12 12 -6 14 -5 15 5 6 7 -7 10 -15
7 -18z m1512 15 c0 -5 -5 -10 -11 -10 -5 0 -7 5 -4 10 3 6 8 10 11 10 2 0 4
-4 4 -10z m-1536 -16 c3 -8 2 -12 -4 -9 -6 3 -10 10 -10 16 0 14 7 11 14 -7z
m419 9 c-7 -2 -21 -2 -30 0 -10 3 -4 5 12 5 17 0 24 -2 18 -5z m104 -30 c-3
-10 -5 -4 -5 12 0 17 2 24 5 18 2 -7 2 -21 0 -30z m24 14 c-10 -9 -11 -8 -5 6
3 10 9 15 12 12 3 -3 0 -11 -7 -18z m-1266 3 c3 -5 2 -10 -4 -10 -5 0 -13 5
-16 10 -3 6 -2 10 4 10 5 0 13 -4 16 -10z m840 0 c-3 -5 -11 -10 -16 -10 -6 0
-7 5 -4 10 3 6 11 10 16 10 6 0 7 -4 4 -10z m500 -4 c-11 -8 -16 -19 -12 -30
4 -10 3 -15 -3 -11 -14 9 -12 42 3 48 24 10 31 7 12 -7z m792 8 c-3 -3 -12 -4
-19 -1 -8 3 -5 6 6 6 11 1 17 -2 13 -5z m193 -9 c0 -9 -8 -19 -17 -22 -25 -9
-62 -50 -54 -60 3 -4 2 -4 -3 0 -17 13 -15 37 2 37 15 0 15 2 2 11 -13 9 -13
10 0 8 28 -3 61 13 56 27 -3 8 -1 14 4 14 6 0 10 -7 10 -15z m200 11 c0 -3 -4
-8 -10 -11 -5 -3 -10 -1 -10 4 0 6 5 11 10 11 6 0 10 -2 10 -4z m1043 -3 c-84
-2 -222 -2 -305 0 -84 1 -16 3 152 3 168 0 236 -2 153 -3z m-3448 -13 c-3 -5
-11 -10 -16 -10 -6 0 -7 5 -4 10 3 6 11 10 16 10 6 0 7 -4 4 -10z m72 4 c-3
-3 -12 -4 -19 -1 -8 3 -5 6 6 6 11 1 17 -2 13 -5z m97 -9 c-4 -8 -10 -15 -15
-15 -4 0 -6 7 -3 15 4 8 10 15 15 15 4 0 6 -7 3 -15z m1976 0 c0 -1 -9 -5 -19
-8 -13 -3 -18 -1 -14 9 4 10 33 10 33 -1z m760 -185 c-1 -166 -4 -200 -16
-200 -12 0 -14 34 -14 200 0 173 2 200 15 200 14 0 16 -26 15 -200z m-3055
180 c3 -5 1 -10 -4 -10 -6 0 -11 5 -11 10 0 6 2 10 4 10 3 0 8 -4 11 -10z
m282 4 c-3 -3 -12 -4 -19 -1 -8 3 -5 6 6 6 11 1 17 -2 13 -5z m458 -4 c3 -6
-1 -7 -9 -4 -18 7 -21 14 -7 14 6 0 13 -4 16 -10z m1482 -5 c4 -4 0 -5 -11 -1
-16 5 -17 4 -6 -9 8 -9 8 -15 2 -15 -6 0 -14 5 -17 10 -3 6 -17 10 -31 10 -13
0 -24 4 -24 8 0 11 77 8 87 -3z m391 -6 c3 -12 2 -12 -7 1 -8 12 -13 12 -30
-4 -12 -11 -21 -16 -21 -11 0 11 33 35 44 32 6 -2 11 -10 14 -18z m-98 -10 c0
-14 -17 -10 -23 5 -4 10 -1 13 9 9 7 -3 14 -9 14 -14z m933 14 c-57 -2 -149
-2 -205 0 -57 1 -11 3 102 3 113 0 159 -2 103 -3z m754 -55 c-2 -13 -4 -3 -4
22 0 25 2 35 4 23 2 -13 2 -33 0 -45z m58 25 c-8 -52 -15 -54 -15 -5 0 23 5
42 11 42 6 0 8 -14 4 -37z m53 3 c1 -19 -2 -37 -8 -41 -6 -4 -10 9 -10 34 0
50 15 55 18 7z m46 -3 c-9 -52 -14 -54 -14 -5 0 23 5 42 10 42 7 0 8 -14 4
-37z m56 2 c0 -19 -4 -35 -10 -35 -5 0 -10 16 -10 35 0 19 5 35 10 35 6 0 10
-16 10 -35z m42 0 c-2 -19 -6 -35 -8 -35 -2 0 -4 16 -4 35 0 19 4 35 8 35 4 0
6 -16 4 -35z m56 10 c-1 -14 -5 -25 -9 -25 -4 0 -6 11 -6 25 0 14 3 25 8 25 5
0 8 -11 7 -25z m52 15 c0 -5 -2 -10 -4 -10 -3 0 -8 5 -11 10 -3 6 -1 10 4 10
6 0 11 -4 11 -10z m97 -27 c-3 -10 -5 -4 -5 12 0 17 2 24 5 18 2 -7 2 -21 0
-30z m-4492 17 c-3 -5 -11 -10 -16 -10 -6 0 -7 5 -4 10 3 6 11 10 16 10 6 0 7
-4 4 -10z m2300 -11 c-11 -4 -27 -8 -35 -8 -10 1 -11 2 -2 6 6 2 10 8 7 12 -2
5 8 6 23 3 24 -5 24 -6 7 -13z m-2238 5 c-3 -3 -12 -4 -19 -1 -8 3 -5 6 6 6
11 1 17 -2 13 -5z m660 0 c-3 -3 -12 -4 -19 -1 -8 3 -5 6 6 6 11 1 17 -2 13
-5z m1473 -4 c0 -5 -2 -10 -4 -10 -3 0 -8 5 -11 10 -3 6 -1 10 4 10 6 0 11 -4
11 -10z m-2363 -6 c-3 -3 -12 -4 -19 -1 -8 3 -5 6 6 6 11 1 17 -2 13 -5z m290
-16 c-3 -8 -6 -5 -6 6 -1 11 2 17 5 13 3 -3 4 -12 1 -19z m3516 15 c-123 -2
-323 -2 -445 0 -123 1 -23 2 222 2 245 0 345 -1 223 -2z m804 -25 c-3 -7 -5
-2 -5 12 0 14 2 19 5 13 2 -7 2 -19 0 -25z m-4437 12 c0 -5 -8 -10 -17 -10
-15 0 -16 2 -3 10 19 12 20 12 20 0z m87 4 c-3 -3 -12 -4 -19 -1 -8 3 -5 6 6
6 11 1 17 -2 13 -5z m460 0 c-3 -3 -12 -4 -19 -1 -8 3 -5 6 6 6 11 1 17 -2 13
-5z m-717 -24 c0 -5 -8 -10 -17 -10 -15 0 -16 2 -3 10 19 12 20 12 20 0z
m2116 -22 c-18 -26 -22 -17 -5 14 6 11 13 17 16 15 3 -3 -2 -16 -11 -29z m505
9 c-10 -9 -11 -8 -5 6 3 10 9 15 12 12 3 -3 0 -11 -7 -18z m1132 16 c-111 -2
-295 -2 -410 0 -114 1 -23 2 202 2 226 0 319 -1 208 -2z m-3593 -23 c0 -5 -7
-7 -15 -4 -8 4 -15 8 -15 10 0 2 7 4 15 4 8 0 15 -4 15 -10z m154 -5 c3 -8 1
-15 -3 -15 -5 0 -11 7 -15 15 -3 8 -1 15 3 15 5 0 11 -7 15 -15z m-299 -5 c-3
-5 -11 -10 -16 -10 -6 0 -7 5 -4 10 3 6 11 10 16 10 6 0 7 -4 4 -10z m3683 3
c-104 -2 -272 -2 -375 0 -104 1 -19 2 187 2 206 0 291 -1 188 -2z m-3563 -14
c11 -17 -1 -21 -15 -4 -8 9 -8 15 -2 15 6 0 14 -5 17 -11z m605 1 c0 -5 -5
-10 -11 -10 -5 0 -7 5 -4 10 3 6 8 10 11 10 2 0 4 -4 4 -10z m120 -11 c0 -6
-4 -7 -10 -4 -5 3 -10 11 -10 16 0 6 5 7 10 4 6 -3 10 -11 10 -16z m-828 -11
c-7 -7 -12 -8 -12 -2 0 14 12 26 19 19 2 -3 -1 -11 -7 -17z m72 7 c3 -8 1 -15
-4 -15 -6 0 -10 7 -10 15 0 8 2 15 4 15 2 0 6 -7 10 -15z m647 -8 c-10 -9 -11
-8 -5 6 3 10 9 15 12 12 3 -3 0 -11 -7 -18z m83 7 c3 -8 2 -12 -4 -9 -6 3 -10
10 -10 16 0 14 7 11 14 -7z m-767 -16 c-3 -8 -6 -5 -6 6 -1 11 2 17 5 13 3 -3
4 -12 1 -19z m487 7 c-4 -9 -16 -21 -28 -27 -19 -10 -18 -8 4 15 29 31 31 32
24 12z m253 -7 c-3 -8 -6 -5 -6 6 -1 11 2 17 5 13 3 -3 4 -12 1 -19z m1663 12
c0 -5 -2 -10 -4 -10 -3 0 -8 5 -11 10 -3 6 -1 10 4 10 6 0 11 -4 11 -10z m500
-165 c0 -69 -3 -85 -15 -85 -12 0 -15 16 -15 85 0 69 3 85 15 85 12 0 15 -16
15 -85z m-80 -30 c0 -42 -3 -55 -15 -55 -12 0 -15 13 -15 55 0 42 3 55 15 55
12 0 15 -13 15 -55z m-2530 -11 c0 -32 -4 -44 -12 -42 -14 5 -23 51 -14 74 11
30 26 12 26 -32z m50 1 c0 -25 -4 -45 -10 -45 -5 0 -10 20 -10 45 0 25 5 45
10 45 6 0 10 -20 10 -45z m-330 0 c0 -19 -4 -35 -9 -35 -5 0 -9 16 -9 35 0 19
4 35 9 35 5 0 9 -16 9 -35z m56 11 c1 -14 -3 -27 -10 -29 -7 -3 -11 7 -11 24
-1 35 19 39 21 5z m54 -16 c0 -22 -4 -40 -10 -40 -5 0 -10 18 -10 40 0 22 5
40 10 40 6 0 10 -18 10 -40z m58 3 c-4 -47 -21 -45 -23 2 -2 24 2 35 12 35 10
0 13 -10 11 -37z m52 -3 c0 -22 -4 -40 -10 -40 -5 0 -10 18 -10 40 0 22 5 40
10 40 6 0 10 -18 10 -40z m4755 30 c-3 -5 -13 -10 -21 -10 -8 0 -14 5 -14 10
0 6 9 10 21 10 11 0 17 -4 14 -10z m5 -40 c0 -5 -11 -10 -25 -10 -14 0 -25 5
-25 10 0 6 11 10 25 10 14 0 25 -4 25 -10z"/>
<path d="M2433 3275 c0 -22 2 -30 4 -17 2 12 2 30 0 40 -3 9 -5 -1 -4 -23z"/>
<path d="M2483 3275 c0 -22 2 -30 4 -17 2 12 2 30 0 40 -3 9 -5 -1 -4 -23z"/>
<path d="M2581 3294 c0 -11 3 -14 6 -6 3 7 2 16 -1 19 -3 4 -6 -2 -5 -13z"/>
<path d="M2581 3254 c0 -11 3 -14 6 -6 3 7 2 16 -1 19 -3 4 -6 -2 -5 -13z"/>
<path d="M2633 3275 c0 -22 2 -30 4 -17 2 12 2 30 0 40 -3 9 -5 -1 -4 -23z"/>
<path d="M2842 3270 c0 -19 2 -27 5 -17 2 9 2 25 0 35 -3 9 -5 1 -5 -18z"/>
<path d="M2892 3270 c0 -19 2 -27 5 -17 2 9 2 25 0 35 -3 9 -5 1 -5 -18z"/>
<path d="M2992 3270 c0 -19 2 -27 5 -17 2 9 2 25 0 35 -3 9 -5 1 -5 -18z"/>
<path d="M3043 3275 c0 -22 2 -30 4 -17 2 12 2 30 0 40 -3 9 -5 -1 -4 -23z"/>
<path d="M3092 3270 c0 -19 2 -27 5 -17 2 9 2 25 0 35 -3 9 -5 1 -5 -18z"/>
<path d="M3143 3275 c0 -22 2 -30 4 -17 2 12 2 30 0 40 -3 9 -5 -1 -4 -23z"/>
<path d="M3193 3275 c0 -22 2 -30 4 -17 2 12 2 30 0 40 -3 9 -5 -1 -4 -23z"/>
<path d="M1525 2921 l-30 -7 25 -7 c34 -9 102 -8 118 2 9 5 1 10 -25 14 -42 8
-46 7 -88 -2z"/>
<path d="M1482 2854 c-4 -62 31 -104 87 -104 42 0 59 14 63 51 2 16 -2 24 -12
24 -8 0 -14 -6 -12 -13 1 -7 -9 -18 -23 -24 -22 -10 -29 -9 -47 10 -30 30 -16
74 27 83 23 5 17 7 -25 8 l-55 1 -3 -36z"/>
<path d="M1618 2880 c12 -5 25 -16 28 -25 6 -15 44 -22 44 -7 -1 22 -30 42
-61 41 -31 0 -32 -1 -11 -9z"/>
<path d="M1557 2863 c-16 -16 -4 -23 40 -23 43 0 45 1 27 15 -20 15 -56 20
-67 8z"/>
<path d="M1553 2815 c-7 -20 2 -29 21 -22 9 4 13 13 10 22 -8 19 -23 19 -31 0z"/>
<path d="M2686 2978 c3 -5 10 -6 15 -3 13 9 11 12 -6 12 -8 0 -12 -4 -9 -9z"/>
<path d="M2720 2970 c0 -5 7 -10 15 -10 8 0 15 5 15 10 0 6 -7 10 -15 10 -8 0
-15 -4 -15 -10z"/>
<path d="M2760 2970 c0 -5 5 -10 10 -10 6 0 10 5 10 10 0 6 -4 10 -10 10 -5 0
-10 -4 -10 -10z"/>
<path d="M2670 2945 c-12 -15 5 -16 27 -2 6 4 14 3 17 -2 4 -5 2 -12 -4 -16
-13 -8 -13 -25 0 -25 6 0 9 6 8 13 -2 6 3 11 10 10 18 -4 14 14 -5 22 -31 14
-42 13 -53 0z"/>
<path d="M2584 2919 c-3 -6 -1 -16 4 -21 8 -8 11 -5 9 11 -1 24 -3 25 -13 10z"/>
<path d="M2750 2915 c-7 -8 -9 -15 -4 -15 5 0 3 -4 -4 -9 -11 -7 -11 -9 1 -14
10 -4 14 0 12 11 -1 9 2 23 8 30 14 17 2 15 -13 -3z"/>
<path d="M2800 2926 c0 -2 8 -10 18 -17 15 -13 16 -12 3 4 -13 16 -21 21 -21
13z"/>
<path d="M2507 2913 c-4 -3 -7 -11 -7 -17 0 -6 5 -5 12 2 6 6 9 14 7 17 -3 3
-9 2 -12 -2z"/>
<path d="M2627 2903 c-4 -3 -1 -13 6 -21 10 -13 9 -15 -6 -9 -10 4 -16 3 -12
-2 3 -6 14 -9 24 -8 16 1 18 5 9 22 -14 26 -14 26 -21 18z"/>
<path d="M2523 2864 c-27 -22 -46 -49 -53 -72 -13 -47 -13 -85 0 -77 6 3 10
25 10 48 0 36 6 48 47 89 56 57 54 61 -4 12z"/>
<path d="M2565 2871 c-3 -5 -2 -12 3 -15 5 -3 9 1 9 9 0 17 -3 19 -12 6z"/>
<path d="M2824 2780 c0 -58 1 -81 3 -52 2 28 2 76 0 105 -2 28 -3 5 -3 -53z"/>
<path d="M2752 2835 c0 -16 2 -22 5 -12 2 9 2 23 0 30 -3 6 -5 -1 -5 -18z"/>
<path d="M2536 2842 c-3 -5 1 -9 9 -9 8 0 12 4 9 9 -3 4 -7 8 -9 8 -2 0 -6 -4
-9 -8z"/>
<path d="M2909 2848 c-7 -23 -5 -37 4 -35 7 1 11 -5 9 -13 -3 -12 -1 -13 10
-2 11 11 10 16 -4 26 -10 7 -15 16 -11 19 3 4 3 7 0 7 -4 0 -7 -1 -8 -2z"/>
<path d="M2654 2818 l-19 -23 25 20 c14 11 27 21 29 22 2 2 0 3 -6 3 -5 0 -18
-10 -29 -22z"/>
<path d="M2862 2790 c0 -14 2 -19 5 -12 2 6 2 18 0 25 -3 6 -5 1 -5 -13z"/>
<path d="M2643 2775 c0 -8 4 -12 9 -9 5 3 6 10 3 15 -9 13 -12 11 -12 -6z"/>
<path d="M2926 2770 c5 -8 9 -18 9 -22 0 -3 3 -9 7 -13 3 -4 5 0 4 9 -1 9 -8
22 -16 29 -10 10 -11 9 -4 -3z"/>
<path d="M2903 2755 c0 -8 4 -12 9 -9 5 3 6 10 3 15 -9 13 -12 11 -12 -6z"/>
<path d="M2861 2744 c0 -11 3 -14 6 -6 3 7 2 16 -1 19 -3 4 -6 -2 -5 -13z"/>
<path d="M2926 2720 c5 -8 9 -18 9 -22 0 -3 3 -9 7 -13 3 -4 5 0 4 9 -1 9 -8
22 -16 29 -10 10 -11 9 -4 -3z"/>
<path d="M2862 2700 c0 -14 2 -19 5 -12 2 6 2 18 0 25 -3 6 -5 1 -5 -13z"/>
<path d="M2522 2673 c8 -10 13 -11 18 -2 6 8 9 8 13 0 4 -8 5 -8 3 0 -1 7 -12
13 -24 14 -17 1 -19 -1 -10 -12z"/>
<path d="M2504 2653 c4 -8 2 -13 -5 -13 -9 0 -9 -4 1 -15 6 -8 9 -19 5 -25
-13 -20 56 -3 76 19 11 12 16 21 11 21 -5 0 -17 -9 -27 -20 -16 -18 -42 -19
-30 -1 2 5 -5 17 -17 27 -12 11 -18 13 -14 7z"/>
<path d="M2893 2615 c0 -8 4 -12 9 -9 5 3 6 10 3 15 -9 13 -12 11 -12 -6z"/>
<path d="M2939 2583 c-13 -16 -12 -17 4 -4 16 13 21 21 13 21 -2 0 -10 -8 -17
-17z"/>
<path d="M2841 2574 c0 -11 3 -14 6 -6 3 7 2 16 -1 19 -3 4 -6 -2 -5 -13z"/>
<path d="M2559 2567 c6 -8 7 -18 3 -22 -4 -5 -2 -5 5 -1 14 8 6 36 -9 36 -7 0
-6 -5 1 -13z"/>
<path d="M2799 2563 c-13 -15 -12 -15 9 -4 23 12 28 21 13 21 -5 0 -15 -7 -22
-17z"/>
<path d="M2769 2483 c-13 -16 -12 -17 4 -4 9 7 17 15 17 17 0 8 -8 3 -21 -13z"/>
<path d="M2876 2492 c-3 -6 1 -18 10 -26 19 -20 23 -20 20 -1 -3 22 -22 39
-30 27z"/>
<path d="M2936 2467 c3 -10 9 -15 12 -12 3 3 0 11 -7 18 -10 9 -11 8 -5 -6z"/>
<path d="M2589 2458 c-5 -18 -6 -38 -1 -34 7 8 12 36 6 36 -2 0 -4 -1 -5 -2z"/>
<path d="M2677 2449 c7 -7 15 -10 18 -7 3 3 -2 9 -12 12 -14 6 -15 5 -6 -5z"/>
<path d="M2536 2438 c3 -5 10 -6 15 -3 13 9 11 12 -6 12 -8 0 -12 -4 -9 -9z"/>
<path d="M2710 2420 c0 -5 5 -10 11 -10 5 0 7 5 4 10 -3 6 -8 10 -11 10 -2 0
-4 -4 -4 -10z"/>
<path d="M2748 2413 c7 -3 16 -2 19 1 4 3 -2 6 -13 5 -11 0 -14 -3 -6 -6z"/>
<path d="M2863 2388 c-22 -21 -23 -21 -45 -3 l-23 19 22 -24 23 -24 23 22 c13
12 27 19 32 15 4 -5 5 -2 1 5 -9 15 -8 16 -33 -10z"/>
<path d="M2653 2375 c0 -8 4 -12 9 -9 5 3 6 10 3 15 -9 13 -12 11 -12 -6z"/>
<path d="M2523 2323 c4 -3 1 -13 -6 -22 -10 -14 -10 -14 4 -4 9 7 20 9 25 5 4
-4 2 1 -5 11 -7 9 -16 17 -19 17 -3 0 -2 -3 1 -7z"/>
<path d="M2570 2305 c5 -7 6 -16 2 -21 -4 -5 -3 -5 2 -1 15 12 15 34 0 34 -9
0 -11 -4 -4 -12z"/>
<path d="M2941 2294 c0 -11 3 -14 6 -6 3 7 2 16 -1 19 -3 4 -6 -2 -5 -13z"/>
<path d="M2533 2278 c-11 -18 -12 -37 -3 -43 4 -2 7 5 6 18 -1 13 4 21 12 19
8 -1 11 2 7 8 -8 13 -12 13 -22 -2z"/>
<path d="M2615 2261 c-3 -5 -2 -12 3 -15 5 -3 9 1 9 9 0 17 -3 19 -12 6z"/>
<path d="M2577 2253 c-3 -8 -2 -30 3 -35 7 -10 7 -39 -1 -44 -5 -3 -6 -11 -2
-17 4 -7 8 -16 8 -22 0 -5 13 -10 30 -10 24 -1 29 -5 30 -28 2 -30 -6 -34 -24
-13 -9 11 -9 15 1 19 7 3 3 5 -9 3 -12 -1 -26 -6 -30 -10 -5 -4 -2 -6 6 -4 15
3 24 -29 10 -38 -5 -3 -7 -10 -4 -15 6 -8 -9 -13 -29 -10 -5 1 -4 -5 4 -13 10
-13 10 -16 -1 -16 -12 0 -12 -2 -1 -9 8 -4 14 -12 14 -16 0 -4 -6 -12 -14 -16
-10 -7 -10 -9 0 -9 6 0 12 -5 12 -11 0 -6 -9 -8 -20 -4 -12 4 -20 2 -20 -5 0
-6 4 -9 9 -5 5 3 16 -2 24 -10 9 -8 22 -15 29 -15 10 0 10 2 -1 9 -10 7 -11
13 -1 30 9 17 9 26 -1 38 -11 12 -10 14 3 11 9 -1 17 2 18 7 1 6 5 15 10 20 4
6 6 18 5 27 -2 9 3 19 11 22 7 3 11 14 9 25 -2 11 1 23 6 27 6 4 4 13 -7 25
-9 10 -14 19 -9 19 4 0 2 6 -4 13 -14 18 -3 29 19 17 12 -6 17 -5 17 5 0 8 -4
12 -9 9 -5 -3 -18 2 -28 11 -18 17 -19 17 -15 -4 2 -11 -1 -23 -6 -27 -6 -4
-4 -13 6 -24 11 -12 13 -20 6 -25 -14 -8 -33 3 -26 15 3 5 1 11 -4 14 -5 3 -7
19 -6 36 1 17 -1 33 -6 36 -5 3 -7 10 -4 15 4 5 4 9 1 9 -3 0 -7 -3 -9 -7z
m47 -210 c-1 -15 -3 -30 -4 -33 -1 -3 -2 -7 -2 -10 0 -3 -7 -6 -17 -6 -21 0
-24 23 -4 30 8 3 12 10 8 15 -3 5 -1 12 5 16 6 4 7 11 4 17 -4 6 -3 8 3 5 5
-4 9 -19 7 -34z m-29 -72 c3 -5 2 -12 -3 -15 -5 -3 -9 1 -9 9 0 17 3 19 12 6z"/>
<path d="M2830 2180 c8 -5 20 -10 25 -10 6 0 3 5 -5 10 -8 5 -19 10 -25 10 -5
0 -3 -5 5 -10z"/>
<path d="M2930 2159 c0 -5 5 -7 10 -4 6 3 10 8 10 11 0 2 -4 4 -10 4 -5 0 -10
-5 -10 -11z"/>
<path d="M2840 2111 c0 -6 4 -13 10 -16 6 -3 7 1 4 9 -7 18 -14 21 -14 7z"/>
<path d="M2680 2081 c0 -5 7 -12 16 -15 14 -5 15 -4 4 9 -14 17 -20 19 -20 6z"/>
<path d="M2661 2016 c-7 -8 -8 -17 -3 -20 6 -3 12 3 15 14 6 24 4 25 -12 6z"/>
<path d="M2822 1954 c-7 -8 -8 -14 -3 -14 10 0 25 19 20 25 -2 1 -10 -3 -17
-11z"/>
<path d="M2651 1924 c6 -8 14 -12 17 -9 3 3 14 -3 25 -12 19 -18 19 -17 6 5
-8 12 -16 22 -19 23 -3 0 -13 2 -23 4 -15 3 -16 1 -6 -11z"/>
<path d="M2735 1910 c10 -11 20 -20 23 -20 3 0 -3 9 -13 20 -10 11 -20 20 -23
20 -3 0 3 -9 13 -20z"/>
<path d="M2661 1854 c6 -8 15 -11 20 -8 5 3 9 0 9 -6 0 -6 5 -8 10 -5 15 9 4
22 -25 27 -20 4 -23 3 -14 -8z"/>
<path d="M2577 1842 c-10 -11 -13 -23 -8 -31 6 -9 11 -4 19 18 13 36 11 38
-11 13z"/>
<path d="M2754 1842 c11 -12 15 -22 11 -22 -5 0 8 -17 28 -38 21 -21 34 -41
31 -45 -12 -11 -42 -8 -46 5 -3 7 -7 5 -11 -6 -4 -10 -3 -15 3 -11 6 3 10 2
10 -4 0 -5 9 -8 21 -6 15 3 18 1 11 -8 -5 -7 -8 -30 -7 -52 1 -22 -3 -46 -9
-54 -8 -11 -8 -13 2 -7 8 5 12 0 12 -14 0 -15 -5 -20 -14 -17 -13 5 -13 0 -1
-38 7 -24 10 -48 6 -52 -3 -4 4 1 17 11 12 11 21 25 18 32 -4 10 1 11 19 4 21
-8 25 -6 25 8 0 10 -6 24 -12 31 -11 10 -10 11 3 6 20 -7 36 25 18 36 -7 4 -9
17 -6 31 3 13 2 30 -3 38 -8 12 -10 11 -11 -5 0 -11 -3 -15 -5 -8 -3 6 -15 10
-28 7 -15 -2 -23 1 -23 11 0 10 5 11 18 5 12 -7 19 -5 23 5 3 8 0 14 -7 12 -6
-1 -13 9 -15 22 -2 13 0 21 6 17 9 -5 9 14 2 34 -1 3 -2 9 -1 13 1 5 -2 6 -7
3 -11 -7 -58 45 -54 59 2 6 0 7 -4 3 -4 -4 -14 -2 -23 4 -10 8 -9 4 3 -10z
m52 -54 l29 -33 -32 29 c-31 28 -38 36 -30 36 2 0 16 -15 33 -32z m40 -147
c-3 -5 1 -14 9 -21 8 -7 12 -17 9 -22 -3 -5 -14 -2 -25 8 -14 13 -16 20 -8 31
13 15 23 18 15 4z m-26 -111 c0 -5 -4 -10 -10 -10 -5 0 -10 5 -10 10 0 6 5 10
10 10 6 0 10 -4 10 -10z"/>
<path d="M2830 1626 c0 -2 8 -10 18 -17 15 -13 16 -12 3 4 -13 16 -21 21 -21
13z"/>
<path d="M2718 1808 c8 -9 11 -22 8 -27 -4 -5 -3 -12 2 -15 16 -10 10 33 -6
46 -15 12 -16 11 -4 -4z"/>
<path d="M2619 1798 c-5 -17 -4 -50 3 -54 5 -3 7 8 6 25 -2 26 -6 38 -9 29z"/>
<path d="M2720 1731 c-14 -28 -2 -51 26 -49 25 2 31 12 15 22 -5 4 -11 1 -13
-6 -2 -6 -9 -8 -16 -4 -8 4 -8 14 -2 31 11 30 5 33 -10 6z"/>
<path d="M2504 1716 c0 -13 6 -24 11 -23 6 1 10 -19 10 -45 0 -25 3 -49 6 -52
4 -4 4 6 1 21 -3 20 -1 25 6 18 16 -15 26 -78 11 -69 -9 5 -10 0 -6 -17 4 -13
7 -31 7 -39 0 -13 1 -13 11 0 8 11 9 8 4 -15 -5 -22 -3 -27 5 -19 14 14 23 84
11 84 -6 0 -8 9 -6 20 2 11 -1 20 -7 20 -6 0 -5 7 3 17 9 10 9 14 2 10 -7 -5
-16 1 -23 13 -6 11 -8 20 -5 20 3 0 -4 18 -15 40 -24 46 -28 49 -26 16z"/>
<path d="M2864 1729 c-3 -6 -1 -16 5 -22 8 -8 11 -5 11 11 0 24 -5 28 -16 11z"/>
<path d="M2679 1680 c-13 -7 -15 -22 -12 -67 2 -32 8 -62 14 -67 5 -6 9 -34 9
-63 0 -42 -3 -51 -15 -47 -8 4 -15 1 -15 -5 0 -6 5 -10 12 -8 7 1 15 -11 19
-28 l7 -30 1 33 c1 30 3 32 16 18 8 -8 19 -32 24 -53 7 -29 9 -32 10 -13 1 22
3 23 12 8 6 -11 7 -24 1 -34 -10 -19 -4 -54 9 -54 5 0 6 -7 3 -15 -3 -8 1 -24
10 -37 15 -21 16 -21 18 -3 2 27 0 45 -6 78 -4 20 -2 27 9 27 9 0 15 9 14 23
0 20 -1 20 -8 3 -5 -13 -10 -16 -15 -8 -4 6 -2 20 4 31 14 27 13 31 -7 31 -12
0 -14 3 -6 8 6 4 9 19 6 34 -3 15 -9 25 -13 23 -5 -3 -12 0 -16 6 -3 6 -2 14
4 18 8 5 7 15 -2 33 -8 15 -11 30 -8 35 4 4 2 4 -5 -2 -7 -7 -8 -31 -2 -79 5
-38 6 -72 4 -74 -10 -10 -16 7 -20 49 -6 82 -7 84 -20 39 l-13 -45 -1 77 c-1
42 -4 83 -7 92 -3 9 -1 16 5 16 6 0 11 -5 11 -11 0 -6 7 -17 15 -25 21 -21 19
-5 -3 29 -10 15 -22 24 -27 20 -4 -5 -5 4 -1 20 7 30 7 30 -15 17z"/>
<path d="M2586 1648 c4 -13 11 -39 15 -58 6 -30 7 -26 7 23 -1 43 -4 57 -15
57 -10 0 -12 -6 -7 -22z"/>
<path d="M2760 1660 c0 -5 -7 -6 -17 -3 -11 4 -14 3 -9 -5 4 -7 14 -12 23 -12
13 0 13 -3 3 -15 -10 -12 -10 -15 3 -15 19 0 29 47 11 54 -8 3 -14 1 -14 -4z"/>
<path d="M2900 1500 c0 -5 5 -10 11 -10 5 0 7 5 4 10 -3 6 -8 10 -11 10 -2 0
-4 -4 -4 -10z"/>
<path d="M2836 1491 c-3 -5 1 -11 9 -15 9 -3 15 0 15 9 0 16 -16 20 -24 6z"/>
<path d="M2602 1460 c0 -14 2 -19 5 -12 2 6 2 18 0 25 -3 6 -5 1 -5 -13z"/>
<path d="M2576 1413 c9 -38 14 -42 14 -10 0 14 -5 29 -10 32 -7 4 -8 -3 -4
-22z"/>
<path d="M2716 1229 c15 -58 23 -72 25 -43 1 15 3 14 10 -6 l8 -25 -2 25 c-1
14 -7 24 -14 23 -6 -1 -13 16 -17 37 -3 22 -10 40 -15 40 -4 0 -2 -23 5 -51z"/>
<path d="M2661 1164 c0 -11 3 -14 6 -6 3 7 2 16 -1 19 -3 4 -6 -2 -5 -13z"/>
<path d="M2797 1143 c3 -7 6 -13 8 -13 2 0 5 6 8 13 3 8 -1 14 -8 14 -7 0 -11
-6 -8 -14z"/>
<path d="M2820 1123 c0 -12 5 -25 10 -28 13 -8 13 15 0 35 -8 12 -10 11 -10
-7z"/>
<path d="M2890 896 c0 -18 25 -66 33 -63 18 6 20 27 2 27 -11 0 -15 5 -12 14
3 8 -1 17 -9 20 -8 3 -14 4 -14 2z"/>
<path d="M2730 812 c0 -15 28 -23 36 -9 4 7 4 9 -1 5 -4 -4 -14 -3 -22 3 -8 7
-13 8 -13 1z"/>
<path d="M4397 3002 c-31 -34 -26 -84 9 -107 25 -16 27 -16 50 6 31 29 31 69
1 97 -28 27 -39 27 -60 4z m56 -39 c-13 -2 -33 -2 -45 0 -13 2 -3 4 22 4 25 0
35 -2 23 -4z m10 -43 c-10 -9 -75 -1 -69 9 3 4 21 5 41 3 20 -2 33 -8 28 -12z"/>
<path d="M3660 2850 c-7 -13 -7 -26 -2 -37 9 -14 11 -14 21 6 10 18 18 21 42
16 23 -5 28 -4 23 8 -5 14 -34 27 -61 27 -7 0 -17 -9 -23 -20z"/>
<path d="M3684 2809 c-10 -17 21 -41 47 -36 22 4 21 5 -8 12 -21 5 -30 12 -26
21 6 17 -3 19 -13 3z"/>
<path d="M3715 2810 c3 -5 13 -10 21 -10 8 0 14 5 14 10 0 6 -9 10 -21 10 -11
0 -17 -4 -14 -10z"/>
<path d="M447 2765 c3 -8 9 -12 14 -9 12 7 11 11 -5 17 -10 4 -13 1 -9 -8z"/>
<path d="M4240 2621 c-16 -4 -21 -9 -13 -14 9 -6 5 -18 -12 -44 -34 -49 -32
-85 6 -117 35 -30 41 -31 71 -13 30 17 57 48 64 74 3 13 10 21 14 18 5 -3 11
-1 15 5 9 14 -43 69 -82 86 -18 8 -34 14 -35 13 -2 -1 -14 -4 -28 -8z m71 -77
c16 -20 1 -48 -29 -52 -24 -4 -45 28 -36 52 8 21 48 21 65 0z"/>
<path d="M4347 2463 c-4 -3 -7 -11 -7 -17 0 -6 5 -5 12 2 6 6 9 14 7 17 -3 3
-9 2 -12 -2z"/>
<path d="M4640 2581 c0 -5 5 -13 10 -16 6 -3 10 -2 10 4 0 5 -4 13 -10 16 -5
3 -10 2 -10 -4z"/>
<path d="M4542 2548 c-18 -18 -15 -36 7 -48 15 -7 23 -6 35 6 9 8 16 19 16 23
0 11 -23 31 -35 31 -6 0 -16 -5 -23 -12z"/>
<path d="M1580 2160 c0 -5 5 -10 10 -10 6 0 10 5 10 10 0 6 -4 10 -10 10 -5 0
-10 -4 -10 -10z"/>
<path d="M1088 2248 c-7 -21 3 -108 13 -108 5 0 9 27 9 60 0 55 -11 79 -22 48z"/>
<path d="M1120 2200 l0 -60 30 0 30 0 0 60 0 60 -30 0 -30 0 0 -60z m40 0 c0
-22 -4 -40 -10 -40 -5 0 -10 18 -10 40 0 22 5 40 10 40 6 0 10 -18 10 -40z"/>
<path d="M1192 2203 c3 -55 4 -58 31 -61 27 -3 27 -3 27 57 l0 61 -30 0 -31 0
3 -57z m38 2 c0 -25 -4 -45 -10 -45 -11 0 -14 73 -3 83 11 12 13 8 13 -38z"/>
<path d="M1260 2230 c0 -23 4 -30 20 -30 20 0 20 -1 5 -30 -26 -50 -7 -33 25
23 33 58 41 88 10 42 l-20 -30 0 28 c0 20 -5 27 -20 27 -16 0 -20 -7 -20 -30z
m30 -1 c0 -11 -4 -17 -10 -14 -5 3 -10 13 -10 21 0 8 5 14 10 14 6 0 10 -9 10
-21z"/>
<path d="M1326 2203 c-3 -4 -6 -19 -6 -35 0 -39 34 -35 38 3 3 25 -18 46 -32
32z m11 -35 c-3 -8 -6 -5 -6 6 -1 11 2 17 5 13 3 -3 4 -12 1 -19z"/>
<path d="M3180 2091 c0 -6 -8 -8 -17 -5 -16 5 -16 4 0 -6 13 -8 22 -9 29 -2 6
6 6 12 -1 16 -6 4 -11 3 -11 -3z"/>
<path d="M3360 2045 c0 -19 5 -35 10 -35 6 0 10 16 10 35 0 19 -4 35 -10 35
-5 0 -10 -16 -10 -35z"/>
<path d="M3420 2045 c0 -19 5 -35 10 -35 6 0 10 16 10 35 0 19 -4 35 -10 35
-5 0 -10 -16 -10 -35z"/>
<path d="M4192 1670 c0 -14 2 -19 5 -12 2 6 2 18 0 25 -3 6 -5 1 -5 -13z"/>
<path d="M3077 1865 c-4 -8 -3 -16 1 -19 4 -3 9 4 9 15 2 23 -3 25 -10 4z"/>
<path d="M3050 1771 c0 -18 18 -21 30 -6 10 13 9 15 -9 15 -11 0 -21 -4 -21
-9z"/>
<path d="M3040 1570 c0 -5 5 -10 11 -10 5 0 7 5 4 10 -3 6 -8 10 -11 10 -2 0
-4 -4 -4 -10z"/>
<path d="M4012 1428 c-7 -7 -11 -23 -11 -37 1 -21 2 -22 6 -6 3 11 12 28 21
38 17 19 3 24 -16 5z"/>
<path d="M3130 1330 c0 -5 5 -10 10 -10 6 0 10 5 10 10 0 6 -4 10 -10 10 -5 0
-10 -4 -10 -10z"/>
<path d="M4486 968 c3 -4 9 -8 15 -8 5 0 9 4 9 8 0 5 -7 9 -15 9 -8 0 -12 -4
-9 -9z"/>
<path d="M2942 908 c2 -5 7 -9 11 -9 4 1 14 1 22 1 8 0 15 4 15 9 0 5 -11 9
-25 9 -14 0 -24 -5 -23 -10z"/>
<path d="M3105 560 c3 -5 8 -10 11 -10 2 0 4 5 4 10 0 6 -5 10 -11 10 -5 0 -7
-4 -4 -10z"/>
<path d="M905 480 c-7 -23 1 -40 20 -40 18 0 28 30 14 46 -16 19 -27 17 -34
-6z"/>
<path d="M955 460 c-3 -5 -1 -10 4 -10 6 0 11 5 11 10 0 6 -2 10 -4 10 -3 0
-8 -4 -11 -10z"/>
<path d="M925 427 c-10 -8 -15 -19 -11 -25 12 -19 26 -14 26 11 0 16 3 18 9 8
9 -14 31 -7 31 10 0 14 -33 11 -55 -4z"/>
<path d="M996 424 c-9 -8 -16 -19 -16 -24 0 -12 32 0 42 14 19 28 -1 36 -26
10z"/>
<path d="M885 380 c-18 -7 -19 -8 -2 -15 9 -4 24 -5 32 -1 8 3 15 1 15 -4 0
-6 -4 -10 -10 -10 -5 0 -10 -7 -10 -15 0 -19 26 -20 33 -1 6 14 -18 57 -31 55
-4 0 -16 -4 -27 -9z"/>
<path d="M1002 381 c-11 -7 -10 -10 3 -15 23 -9 25 -8 25 9 0 17 -9 19 -28 6z"/>
<path d="M1036 354 c-8 -31 0 -46 22 -42 24 5 24 64 0 65 -9 1 -19 -8 -22 -23z"/>
</g>
</svg>
