<?xml version="1.0" standalone="no"?>
<!DOCTYPE svg PUBLIC "-//W3C//DTD SVG 20010904//EN"
 "http://www.w3.org/TR/2001/REC-SVG-20010904/DTD/svg10.dtd">
<svg version="1.0" xmlns="http://www.w3.org/2000/svg"
 width="563.000000pt" height="387.000000pt" viewBox="0 0 563.000000 387.000000"
 preserveAspectRatio="xMidYMid meet">

<g transform="translate(0.000000,387.000000) scale(0.100000,-0.100000)"
fill="#000000" stroke="none">
<path d="M0 1941 l0 -1929 24 -6 c13 -3 1279 -6 2815 -6 l2791 1 0 1934 0
1935 -2815 0 -2815 0 0 -1929z m1539 1850 c8 -15 7 -20 -6 -25 -9 -4 -21 -1
-27 5 -8 8 -8 13 2 16 6 3 10 9 6 14 -3 5 -1 9 5 9 6 0 15 -9 20 -19z m65 -32
c-8 -14 -44 -10 -44 4 0 7 6 19 12 25 10 10 15 9 25 -4 7 -9 10 -21 7 -25z
m84 -2 c2 -10 -3 -17 -12 -17 -18 0 -29 16 -21 31 9 14 29 6 33 -14z m3210 1
c3 -13 -3 -18 -22 -18 -20 0 -26 5 -26 21 0 15 5 20 22 17 13 -2 24 -11 26
-20z m-2130 -5 c-10 -2 -26 -2 -35 0 -10 3 -2 5 17 5 19 0 27 -2 18 -5z m1620
-140 l-2 -148 -3 142 -4 142 -32 4 c-31 4 -31 4 6 5 l37 2 -2 -147z m-298 119
c0 -4 -14 -13 -31 -21 -17 -7 -35 -24 -41 -37 -6 -13 -15 -24 -19 -24 -20 0
16 49 49 68 42 25 42 25 42 14z m-1337 -265 c18 -4 18 -4 -5 -6 l-28 -1 2 138
2 137 3 -132 c3 -127 4 -132 26 -136z m1460 221 c31 -42 33 -106 5 -148 -13
-19 -33 -37 -43 -39 -17 -3 -16 0 6 18 57 45 62 125 11 176 -15 16 -21 26 -13
23 8 -2 23 -16 34 -30z m-2913 2 c0 -6 -73 -10 -202 -9 -116 1 -188 5 -168 9
55 12 370 12 370 0z m2419 -23 c-8 -7 -21 -21 -27 -32 -10 -17 -11 -17 -12 -3
0 9 10 24 22 32 26 19 40 21 17 3z m-2549 -27 c0 -6 -59 -10 -156 -10 -101 0
-153 3 -149 10 4 6 67 10 156 10 93 0 149 -4 149 -10z m1854 -16 c10 -26 -5
-45 -33 -42 -31 4 -41 36 -16 54 19 14 41 9 49 -12z m381 -14 c0 -18 -6 -26
-23 -28 -13 -2 -25 3 -28 12 -10 26 4 48 28 44 17 -2 23 -10 23 -28z m370 0
c0 -35 -50 -42 -60 -9 -8 25 9 41 40 37 14 -2 20 -11 20 -28z m363 4 c4 -27
-26 -40 -46 -20 -13 13 -13 18 -2 31 18 21 44 15 48 -11z m-631 -6 c-3 -8 -6
-5 -6 6 -1 11 2 17 5 13 3 -3 4 -12 1 -19z m293 -37 c-6 -12 -15 -21 -21 -21
-5 0 -2 11 8 24 21 28 29 27 13 -3z m-533 -3 c-3 -8 -6 -5 -6 6 -1 11 2 17 5
13 3 -3 4 -12 1 -19z m803 -63 c11 -4 20 -10 20 -15 0 -22 -71 24 -88 57 -21
38 -13 39 18 1 17 -20 39 -40 50 -43z m-721 -11 c14 -12 -19 -1 -35 12 -18 14
-18 14 6 3 14 -6 27 -13 29 -15z m97 11 c-11 -8 -25 -15 -30 -15 -6 1 0 7 14
15 32 19 40 18 16 0z m1814 -466 l0 -470 -42 3 -43 3 -3 468 -2 467 45 0 45 0
0 -471z m-2293 455 c-3 -3 -12 -4 -19 -1 -8 3 -5 6 6 6 11 1 17 -2 13 -5z
m-447 -75 c0 -12 -7 -19 -20 -19 -22 0 -29 35 -7 43 18 6 27 -2 27 -24z
m-1545 -9 c3 -5 1 -10 -4 -10 -6 0 -11 5 -11 10 0 6 2 10 4 10 3 0 8 -4 11
-10z m235 0 c0 -5 -5 -10 -11 -10 -5 0 -7 5 -4 10 3 6 8 10 11 10 2 0 4 -4 4
-10z m110 6 c0 -2 -7 -7 -16 -10 -8 -3 -12 -2 -9 4 6 10 25 14 25 6z m128 -21
c-3 -3 -9 2 -12 12 -6 14 -5 15 5 6 7 -7 10 -15 7 -18z m1497 -33 c-3 -3 -6
-3 -7 -1 -2 2 -14 18 -28 34 l-25 30 32 -29 c18 -16 31 -32 28 -34z m11 26
l29 -33 -32 29 c-31 28 -38 36 -30 36 2 0 16 -15 33 -32z m34 -3 l25 -30 -27
24 c-16 14 -28 29 -28 34 0 6 1 8 3 6 1 -2 13 -17 27 -34z m36 4 c16 -16 22
-28 14 -24 -13 5 -56 55 -47 55 2 0 16 -14 33 -31z m30 -1 l29 -33 -32 29
c-31 28 -38 36 -30 36 2 0 16 -15 33 -32z m29 6 c14 -14 24 -28 22 -30 -2 -2
-16 10 -32 26 -35 37 -26 40 10 4z m35 1 c13 -14 21 -25 18 -25 -2 0 -15 11
-28 25 -13 14 -21 25 -18 25 2 0 15 -11 28 -25z m36 -7 l29 -33 -32 29 c-31
28 -38 36 -30 36 2 0 16 -15 33 -32z m30 7 c15 -14 23 -25 17 -25 -5 0 -20 11
-33 25 -13 14 -21 25 -17 25 3 0 18 -11 33 -25z m40 -7 l29 -33 -32 29 c-31
28 -38 36 -30 36 2 0 16 -15 33 -32z m30 0 l29 -33 -32 29 c-31 28 -38 36 -30
36 2 0 16 -15 33 -32z m33 20 c5 8 17 2 37 -20 28 -32 28 -32 2 -9 -16 14 -31
21 -35 17 -4 -4 -1 -11 7 -16 8 -5 12 -11 9 -14 -3 -3 -19 9 -35 26 -16 18
-21 26 -11 18 14 -10 20 -11 26 -2z m67 -20 l29 -33 -32 29 c-31 28 -38 36
-30 36 2 0 16 -15 33 -32z m44 -13 c10 -15 7 -14 -13 4 -15 14 -27 29 -27 33
0 10 16 -5 40 -37z m26 13 l29 -33 -32 29 c-31 28 -38 36 -30 36 2 0 16 -15
33 -32z m30 0 l29 -33 -32 29 c-31 28 -38 36 -30 36 2 0 16 -15 33 -32z m70 0
l29 -33 -32 29 c-31 28 -38 36 -30 36 2 0 16 -15 33 -32z m30 0 l29 -33 -32
29 c-31 28 -38 36 -30 36 2 0 16 -15 33 -32z m70 0 l29 -33 -32 29 c-31 28
-38 36 -30 36 2 0 16 -15 33 -32z m94 7 c13 -14 21 -25 18 -25 -2 0 -15 11
-28 25 -13 14 -21 25 -18 25 2 0 15 -11 28 -25z m30 0 c13 -14 21 -25 18 -25
-2 0 -15 11 -28 25 -13 14 -21 25 -18 25 2 0 15 -11 28 -25z m95 5 c10 -11 16
-20 13 -20 -3 0 -13 9 -23 20 -10 11 -16 20 -13 20 3 0 13 -9 23 -20z m-241
-29 c-3 -3 -15 6 -27 18 l-22 24 27 -19 c14 -10 24 -21 22 -23z m56 14 c13
-14 21 -25 18 -25 -2 0 -15 11 -28 25 -13 14 -21 25 -18 25 2 0 15 -11 28 -25z
m923 18 c-34 -2 -93 -2 -130 0 -37 2 -9 3 62 3 72 0 102 -1 68 -3z m-1079 -29
c7 -19 2 -18 -19 6 -16 17 -16 20 -3 15 9 -4 19 -13 22 -21z m-3421 -880 c-1
-493 -4 -899 -7 -902 -3 -3 -6 400 -6 896 0 496 3 902 8 902 4 0 6 -403 5
-896z m2591 813 c48 -59 86 -146 93 -213 l6 -55 -34 3 c-32 3 -34 6 -40 48 -9
60 -31 112 -75 172 -35 47 -36 50 -19 68 10 11 22 20 26 20 4 0 24 -19 43 -43z
m-749 3 c0 -7 -7 -15 -15 -17 -13 -4 -13 -3 0 6 13 10 13 12 0 22 -13 9 -13
10 0 6 8 -2 15 -10 15 -17z m3183 -372 l-3 -363 -42 -3 -43 -3 0 365 0 366 45
0 45 0 -2 -362z m-1808 297 c0 -30 -3 -35 -22 -34 -17 1 -19 2 -5 6 21 5 23
23 2 23 -8 0 -15 9 -15 20 0 13 7 20 20 20 16 0 20 -7 20 -35z m55 0 c0 -20
-6 -31 -17 -33 -10 -2 -18 2 -18 8 0 6 5 8 10 5 17 -10 11 7 -7 20 -19 14 -9
38 15 33 11 -2 17 -13 17 -33z m51 26 c17 14 19 -2 2 -19 -9 -9 -8 -12 5 -12
9 0 17 -4 17 -9 0 -5 -11 -8 -24 -7 -13 0 -22 5 -19 10 3 4 0 12 -7 16 -7 5
-9 13 -4 21 6 10 9 10 12 1 3 -10 7 -10 18 -1z m-1260 -58 c-48 -58 -54 -63
-26 -20 18 27 34 46 37 44 2 -3 -2 -13 -11 -24z m396 10 c41 -46 91 -188 60
-169 -7 4 -12 17 -12 29 -1 29 -36 107 -62 135 -12 12 -17 22 -11 22 5 0 17
-8 25 -17z m318 -23 c0 -6 67 -11 178 -12 l177 -3 -177 -2 c-116 -2 -178 -7
-178 -14 0 -16 -45 -6 -46 11 0 8 1 18 3 23 6 11 43 9 43 -3z m387 -16 c-3 -3
-12 -4 -19 -1 -8 3 -5 6 6 6 11 1 17 -2 13 -5z m1043 -14 c0 -14 -7 -20 -24
-20 -23 0 -41 22 -29 34 4 3 17 6 30 6 16 0 23 -6 23 -20z m-427 3 c-23 -2
-64 -2 -90 0 -26 2 -7 3 42 3 50 0 71 -1 48 -3z m135 0 c-16 -2 -40 -2 -55 0
-16 2 -3 4 27 4 30 0 43 -2 28 -4z m75 0 c-7 -2 -19 -2 -25 0 -7 3 -2 5 12 5
14 0 19 -2 13 -5z m-416 -71 l-67 -68 0 -93 0 -93 -65 -64 c-41 -40 -63 -69
-58 -77 5 -9 2 -8 -9 1 -14 11 -7 21 53 79 l69 66 0 91 0 90 67 68 c37 38 70
68 72 68 3 0 -25 -30 -62 -68z m-744 32 c11 -11 -3 -24 -18 -18 -8 4 -12 10
-9 15 6 11 18 12 27 3z m67 -2 c0 -13 -12 -22 -22 -16 -10 6 -1 24 13 24 5 0
9 -4 9 -8z m68 -3 c-2 -6 -8 -10 -13 -10 -5 0 -11 4 -13 10 -2 6 4 11 13 11 9
0 15 -5 13 -11z m63 -2 c-1 -12 -15 -9 -19 4 -3 6 1 10 8 8 6 -3 11 -8 11 -12z
m74 3 c3 -5 -1 -10 -9 -10 -9 0 -16 5 -16 10 0 6 4 10 9 10 6 0 13 -4 16 -10z
m65 0 c0 -5 -4 -10 -10 -10 -5 0 -10 5 -10 10 0 6 5 10 10 10 6 0 10 -4 10
-10z m65 0 c3 -5 1 -10 -4 -10 -6 0 -11 5 -11 10 0 6 2 10 4 10 3 0 8 -4 11
-10z m70 0 c3 -5 -1 -10 -10 -10 -9 0 -13 5 -10 10 3 6 8 10 10 10 2 0 7 -4
10 -10z m-1298 -22 c-3 -8 -6 -5 -6 6 -1 11 2 17 5 13 3 -3 4 -12 1 -19z m-10
-40 c-3 -8 -6 -5 -6 6 -1 11 2 17 5 13 3 -3 4 -12 1 -19z m-1204 -25 c-7 -2
-19 -2 -25 0 -7 3 -2 5 12 5 14 0 19 -2 13 -5z m190 0 c-29 -2 -78 -2 -110 0
-32 2 -8 3 52 3 61 0 87 -1 58 -3z m3885 -231 l2 -233 -42 3 -43 3 -3 220 c-1
121 -1 224 2 230 2 5 21 10 42 10 l39 0 3 -233z m-3022 193 c1 -8 -2 -15 -7
-15 -5 0 -9 10 -9 22 0 23 12 17 16 -7z m44 16 c0 -6 -4 -12 -8 -15 -5 -3 -9
1 -9 9 0 8 4 15 9 15 4 0 8 -4 8 -9z m126 -79 c-5 -5 -26 59 -25 77 0 9 7 -4
14 -29 8 -24 13 -46 11 -48z m509 51 c-9 -50 -37 -103 -70 -133 -26 -23 -27
-23 -16 -3 6 12 16 25 22 29 17 10 49 86 49 117 0 15 5 27 11 27 8 0 9 -12 4
-37z m170 27 c4 -6 58 -10 129 -10 76 0 126 -4 133 -11 6 -6 26 -15 45 -19 28
-7 29 -8 7 -9 -14 -1 -34 6 -45 14 -23 17 -259 22 -269 5 -8 -13 -42 -13 -50
0 -11 18 3 40 24 40 11 0 23 -4 26 -10z m-1747 -37 c-49 -2 -127 -2 -175 0
-49 1 -9 3 87 3 96 0 136 -2 88 -3z m939 1 c-3 -3 -12 -4 -19 -1 -8 3 -5 6 6
6 11 1 17 -2 13 -5z m-23 -25 c25 4 36 -1 36 -16 0 -10 11 -37 24 -60 17 -28
21 -45 14 -49 -7 -5 -8 -2 -3 7 5 8 4 10 0 6 -13 -11 -15 -37 -4 -37 6 0 9 -8
7 -17 -2 -12 4 -18 20 -19 27 -2 27 0 0 26 -12 11 -18 23 -15 27 9 8 67 -59
60 -70 -2 -4 -9 -4 -15 -1 -6 4 -8 2 -4 -4 10 -16 -14 -26 -27 -12 -9 10 -9
11 2 5 9 -5 12 -4 7 3 -4 7 -13 12 -21 12 -7 0 -22 15 -34 33 -19 29 -19 33
-5 44 10 7 14 19 10 29 -5 13 -9 14 -21 4 -19 -16 -31 -7 -40 32 -13 53 -15
85 -6 70 5 -8 11 -13 15 -13z m1299 14 c-24 -2 -62 -2 -85 0 -24 2 -5 4 42 4
47 0 66 -2 43 -4z m150 0 c-7 -2 -21 -2 -30 0 -10 3 -4 5 12 5 17 0 24 -2 18
-5z m91 -9 c5 -13 3 -14 -6 -7 -7 6 -20 13 -28 16 -10 4 -8 6 6 6 12 1 25 -6
28 -15z m1926 -204 l0 -180 -40 0 -40 0 0 180 0 180 40 0 40 0 0 -180z m-1944
121 c-16 -17 -25 -34 -21 -41 6 -9 2 -9 -13 -1 -21 11 -20 12 16 45 44 41 57
38 18 -3z m-1326 -6 l25 -30 -27 24 c-16 14 -28 29 -28 34 0 6 1 8 3 6 1 -2
13 -17 27 -34z m2488 -19 c12 -3 12 -4 -3 -3 -11 1 -20 9 -21 17 0 8 1 10 3 3
2 -6 12 -14 21 -17z m-821 -38 c-3 -8 -6 -5 -6 6 -1 11 2 17 5 13 3 -3 4 -12
1 -19z m-2542 -8 c3 -5 1 -10 -4 -10 -6 0 -11 5 -11 10 0 6 2 10 4 10 3 0 8
-4 11 -10z m2168 -4 c8 -20 -20 -43 -35 -28 -14 14 -3 42 16 42 7 0 16 -6 19
-14z m302 -26 c3 -5 1 -10 -4 -10 -6 0 -11 5 -11 10 0 6 2 10 4 10 3 0 8 -4
11 -10z m-1748 -71 c16 -16 5 -39 -18 -39 -12 0 -19 7 -19 18 0 31 17 41 37
21z m-1637 -39 c0 -15 -7 -20 -25 -20 -24 0 -34 18 -18 33 15 15 43 7 43 -13z
m3940 -380 c0 -40 -4 -70 -10 -70 -6 0 -10 30 -10 70 0 40 4 70 10 70 6 0 10
-30 10 -70z m40 0 c0 -40 -4 -70 -10 -70 -6 0 -10 30 -10 70 0 40 4 70 10 70
6 0 10 -30 10 -70z m40 0 c0 -40 -4 -70 -10 -70 -6 0 -10 30 -10 70 0 40 4 70
10 70 6 0 10 -30 10 -70z m607 -37 c-2 -21 -4 -4 -4 37 0 41 2 58 4 38 2 -21
2 -55 0 -75z m44 38 c1 -34 -2 -65 -5 -68 -3 -4 -6 27 -6 67 0 40 2 71 5 68 3
-3 6 -33 6 -67z m-611 -17 c0 -30 -4 -54 -10 -54 -6 0 -10 27 -10 61 0 37 4
58 10 54 6 -3 10 -31 10 -61z m40 6 c0 -33 -4 -60 -10 -60 -11 0 -14 103 -3
113 12 12 13 8 13 -53z m80 -15 c0 -25 -4 -45 -10 -45 -11 0 -14 73 -3 83 11
12 13 8 13 -38z m40 -1 c0 -29 -4 -43 -11 -39 -14 9 -8 85 7 85 2 0 4 -21 4
-46z m330 -4 c0 -22 -4 -40 -10 -40 -11 0 -14 63 -3 73 11 12 13 8 13 -33z
m-410 -5 c0 -19 -4 -35 -10 -35 -5 0 -10 16 -10 35 0 19 5 35 10 35 6 0 10
-16 10 -35z m117 -17 c-2 -13 -4 -5 -4 17 -1 22 1 32 4 23 2 -10 2 -28 0 -40z
m53 11 c0 -16 -4 -29 -10 -29 -5 0 -10 16 -10 36 0 21 4 33 10 29 6 -3 10 -19
10 -36z m40 0 c0 -16 -4 -29 -10 -29 -5 0 -10 16 -10 36 0 21 4 33 10 29 6 -3
10 -19 10 -36z m240 4 c0 -26 -3 -34 -11 -26 -9 9 -3 63 7 63 2 0 4 -17 4 -37z
m117 -15 c-2 -13 -4 -5 -4 17 -1 22 1 32 4 23 2 -10 2 -28 0 -40z m53 17 c0
-19 -4 -35 -10 -35 -5 0 -10 16 -10 35 0 19 5 35 10 35 6 0 10 -16 10 -35z
m-330 -10 c0 -14 -4 -25 -10 -25 -5 0 -10 11 -10 25 0 14 5 25 10 25 6 0 10
-11 10 -25z m40 0 c0 -14 -4 -25 -10 -25 -5 0 -10 11 -10 25 0 14 5 25 10 25
6 0 10 -11 10 -25z m40 0 c0 -14 -4 -25 -10 -25 -5 0 -10 11 -10 25 0 14 5 25
10 25 6 0 10 -11 10 -25z m447 -12 c-3 -10 -5 -4 -5 12 0 17 2 24 5 18 2 -7 2
-21 0 -30z m-567 7 c0 -11 -4 -20 -10 -20 -5 0 -10 9 -10 20 0 11 5 20 10 20
6 0 10 -9 10 -20z m410 -5 c0 -8 -4 -15 -10 -15 -5 0 -10 7 -10 15 0 8 5 15
10 15 6 0 10 -7 10 -15z m40 0 c0 -8 -4 -15 -10 -15 -5 0 -10 7 -10 15 0 8 5
15 10 15 6 0 10 -7 10 -15z m40 0 c0 -8 -4 -15 -10 -15 -5 0 -10 7 -10 15 0 8
5 15 10 15 6 0 10 -7 10 -15z m40 0 c0 -8 -4 -15 -10 -15 -5 0 -10 7 -10 15 0
8 5 15 10 15 6 0 10 -7 10 -15z m-1080 -205 c0 -5 -5 -10 -11 -10 -5 0 -7 5
-4 10 3 6 8 10 11 10 2 0 4 -4 4 -10z m158 -107 c-32 -2 -84 -2 -115 0 -32 2
-6 3 57 3 63 0 89 -1 58 -3z m-3671 -20 c3 -7 -7 -22 -21 -34 -33 -29 -33 -37
2 -42 22 -3 20 -4 -10 -6 -45 -1 -49 14 -11 44 30 24 24 50 -9 39 -14 -4 -18
-3 -13 6 9 14 57 9 62 -7z m81 -36 l3 -48 -33 3 c-36 3 -46 26 -33 75 4 19 11
24 33 21 25 -3 27 -7 30 -51z m87 3 c0 -43 -1 -45 -30 -45 -27 0 -30 4 -33 33
-5 50 4 64 35 60 26 -3 28 -6 28 -48z m70 -5 c-15 -26 -29 -44 -32 -41 -3 3 7
26 22 51 15 26 29 44 32 41 3 -3 -7 -26 -22 -51z m-15 31 c0 -20 -19 -31 -32
-18 -6 6 -7 15 -4 21 10 16 36 13 36 -3z m50 -52 c0 -14 -21 -19 -33 -7 -9 9
13 34 24 27 5 -3 9 -12 9 -20z m705 -160 c0 -116 -1 -119 -22 -122 -23 -3 -23
-2 -23 116 0 119 5 135 35 128 6 -2 10 -51 10 -122z m-67 -27 c3 -92 2 -97
-18 -97 -19 0 -20 6 -20 101 0 90 2 100 18 97 14 -3 17 -17 20 -101z m132 -22
c0 -68 -2 -75 -20 -75 -18 0 -20 7 -20 75 0 68 2 75 20 75 18 0 20 -7 20 -75z
m-290 -20 c0 -48 -2 -55 -20 -55 -18 0 -20 7 -20 55 0 48 2 55 20 55 18 0 20
-7 20 -55z m-70 -10 c0 -38 -3 -45 -20 -45 -17 0 -20 7 -20 38 0 41 6 52 27
52 9 0 13 -14 13 -45z m140 -10 c0 -28 -4 -35 -20 -35 -15 0 -20 7 -20 28 0
32 7 42 27 42 8 0 13 -12 13 -35z m-1247 -32 c4 -3 2 -12 -4 -20 -9 -10 -15
-10 -25 -2 -8 6 -11 15 -8 20 6 11 28 12 37 2z m233 -10 c-3 -19 -36 -27 -36
-9 0 16 10 26 26 26 7 0 11 -8 10 -17z m724 -3 c0 -23 -35 -28 -43 -6 -7 18 1
26 25 26 11 0 18 -7 18 -20z m-562 -36 c18 -4 22 -10 18 -32 -2 -15 -5 -34 -6
-42 -1 -8 -5 -1 -9 15 l-6 30 -113 3 c-99 2 -123 8 -108 23 7 6 197 9 224 3z
m3462 -22 c0 -10 -5 -23 -11 -29 -15 -15 -43 11 -35 32 8 22 46 19 46 -3z
m-4030 -17 c0 -8 -7 -15 -15 -15 -8 0 -15 7 -15 15 0 8 7 15 15 15 8 0 15 -7
15 -15z m4283 -18 c8 -20 -9 -41 -27 -34 -23 9 -21 47 3 47 10 0 21 -6 24 -13z
m-3410 -104 c-7 -2 -21 -2 -30 0 -10 3 -4 5 12 5 17 0 24 -2 18 -5z m3973 -18
l35 -14 -27 -48 c-16 -27 -43 -69 -60 -96 l-33 -47 -3 110 -3 110 28 0 c15 0
44 -7 63 -15z m-3999 -22 c-20 -2 -52 -2 -70 0 -17 2 0 4 38 4 39 0 53 -2 32
-4z m-488 -20 c27 -23 36 -72 17 -96 -7 -10 -28 -22 -46 -27 -27 -8 -35 -6
-56 15 -64 64 15 165 85 108z m4589 -39 c18 -20 32 -40 32 -46 0 -5 7 -17 16
-25 11 -11 14 -26 10 -45 -3 -18 -2 -27 4 -23 6 3 10 1 10 -5 0 -18 -22 -21
-133 -18 l-106 3 27 42 c15 22 43 66 62 97 19 30 38 55 41 56 3 0 20 -16 37
-36z m-4075 19 c-7 -2 -19 -2 -25 0 -7 3 -2 5 12 5 14 0 19 -2 13 -5z m474
-20 c-13 -13 -20 -14 -29 -5 -9 9 -6 14 13 21 31 11 37 5 16 -16z m3347 -81
l51 -102 127 0 c75 0 129 -4 133 -10 4 -6 -1 -35 -10 -66 -42 -145 -210 -220
-347 -155 -114 55 -171 213 -118 330 21 46 85 114 103 108 5 -1 33 -49 61
-105z m-4616 -150 c48 -5 39 -22 -13 -22 l-45 0 0 123 c0 68 3 127 8 131 4 4
9 -46 12 -111 l5 -118 33 -3z m3352 208 c0 -15 -7 -20 -25 -20 -18 0 -25 5
-25 20 0 15 7 20 25 20 18 0 25 -5 25 -20z m-2602 3 c-15 -2 -42 -2 -60 0 -18
2 -6 4 27 4 33 0 48 -2 33 -4z m4652 -39 c0 -17 -26 -19 -36 -3 -7 12 15 31
28 23 4 -3 8 -12 8 -20z m-5480 2 c0 -8 -5 -18 -11 -22 -14 -8 -33 11 -25 25
10 16 36 13 36 -3z m5498 -133 c-15 -2 -42 -2 -60 0 -18 2 -6 4 27 4 33 0 48
-2 33 -4z m15 -70 c-13 -2 -35 -2 -50 0 -16 2 -5 4 22 4 28 0 40 -2 28 -4z
m-10 -70 c-18 -2 -48 -2 -65 0 -18 2 -4 4 32 4 36 0 50 -2 33 -4z m0 -70 c-18
-2 -48 -2 -65 0 -18 2 -4 4 32 4 36 0 50 -2 33 -4z m-1828 -13 c4 -6 10 -8 15
-5 5 3 11 1 15 -5 10 -16 -23 -24 -40 -10 -8 7 -15 16 -15 21 0 12 17 11 25
-1z m-3447 -17 c-16 -2 -40 -2 -55 0 -16 2 -3 4 27 4 30 0 43 -2 28 -4z m5197
-3 c3 -5 1 -10 -4 -10 -6 0 -11 5 -11 10 0 6 2 10 4 10 3 0 8 -4 11 -10z m63
-7 c-10 -2 -26 -2 -35 0 -10 3 -2 5 17 5 19 0 27 -2 18 -5z m15 -30 c-18 -2
-48 -2 -65 0 -18 2 -4 4 32 4 36 0 50 -2 33 -4z m0 -70 c-18 -2 -48 -2 -65 0
-18 2 -4 4 32 4 36 0 50 -2 33 -4z m-5275 -40 c-16 -2 -40 -2 -55 0 -16 2 -3
4 27 4 30 0 43 -2 28 -4z m5255 -30 c-13 -2 -35 -2 -50 0 -16 2 -5 4 22 4 28
0 40 -2 28 -4z m15 -70 c-15 -2 -42 -2 -60 0 -18 2 -6 4 27 4 33 0 48 -2 33
-4z m5 -70 c-18 -2 -48 -2 -65 0 -18 2 -4 4 32 4 36 0 50 -2 33 -4z m-5 -40
c-15 -2 -42 -2 -60 0 -18 2 -6 4 27 4 33 0 48 -2 33 -4z m-5498 -29 c0 -8 -7
-14 -15 -14 -15 0 -21 21 -9 33 10 9 24 -2 24 -19z m5503 -1 c-18 -2 -48 -2
-65 0 -18 2 -4 4 32 4 36 0 50 -2 33 -4z m0 -40 c-18 -2 -48 -2 -65 0 -18 2
-4 4 32 4 36 0 50 -2 33 -4z m0 -30 c-18 -2 -48 -2 -65 0 -18 2 -4 4 32 4 36
0 50 -2 33 -4z m-5483 -43 c0 -11 -7 -20 -15 -20 -8 0 -15 9 -15 20 0 11 7 20
15 20 8 0 15 -9 15 -20z"/>
<path d="M2640 3291 c0 -5 5 -13 10 -16 6 -3 10 -2 10 4 0 5 -4 13 -10 16 -5
3 -10 2 -10 -4z"/>
<path d="M2686 3215 c4 -8 8 -15 10 -15 2 0 4 7 4 15 0 8 -4 15 -10 15 -5 0
-7 -7 -4 -15z"/>
<path d="M2730 3060 c0 -5 5 -10 10 -10 6 0 10 5 10 10 0 6 -4 10 -10 10 -5 0
-10 -4 -10 -10z"/>
<path d="M3270 3250 c0 -5 5 -10 10 -10 6 0 10 5 10 10 0 6 -4 10 -10 10 -5 0
-10 -4 -10 -10z"/>
<path d="M3320 3250 c0 -5 7 -10 16 -10 8 0 12 5 9 10 -3 6 -10 10 -16 10 -5
0 -9 -4 -9 -10z"/>
<path d="M1934 2924 c3 -9 6 -18 6 -20 0 -2 7 -4 15 -4 8 0 15 9 15 20 0 14
-7 20 -21 20 -15 0 -19 -4 -15 -16z"/>
<path d="M1960 2880 c-8 -5 -12 -12 -9 -15 4 -3 12 1 19 10 14 17 11 19 -10 5z"/>
<path d="M714 1887 c-9 -25 0 -62 16 -62 10 0 15 10 15 34 0 36 -21 54 -31 28z"/>
<path d="M802 1891 c-19 -12 -11 -65 11 -69 14 -3 17 4 17 37 0 42 -5 47 -28
32z"/>
</g>
</svg>
